<svg width="1" height="1" viewBox="0 0 1 1" fill="none" xmlns="http://www.w3.org/2000/svg">
<path d="M0.654584 0.529584C0.695434 0.497445 0.725251 0.453372 0.739886 0.403498C0.754521 0.353624 0.753248 0.300428 0.736242 0.251311C0.719237 0.202195 0.687345 0.1596 0.645004 0.129452C0.602663 0.099305 0.551978 0.0831044 0.500001 0.0831044C0.448023 0.0831044 0.397338 0.099305 0.354997 0.129452C0.312656 0.1596 0.280765 0.202195 0.263759 0.251311C0.246753 0.300428 0.24548 0.353624 0.260115 0.403498C0.274751 0.453372 0.304567 0.497445 0.345417 0.529584C0.27542 0.557627 0.214345 0.60414 0.168704 0.664164C0.123062 0.724188 0.094565 0.795472 0.0862499 0.870418C0.085648 0.875889 0.0861297 0.881426 0.0876676 0.886712C0.0892055 0.891997 0.0917693 0.896928 0.0952129 0.901223C0.102167 0.909897 0.112283 0.915452 0.123333 0.916668C0.134384 0.917883 0.145465 0.914659 0.154139 0.907705C0.162812 0.90075 0.168368 0.890635 0.169583 0.879584C0.178733 0.798134 0.21757 0.72291 0.278676 0.668284C0.339782 0.613658 0.418871 0.58346 0.500834 0.58346C0.582797 0.58346 0.661886 0.613658 0.722992 0.668284C0.784097 0.72291 0.822935 0.798134 0.832084 0.879584C0.833217 0.889823 0.838103 0.899278 0.845797 0.906127C0.853492 0.912975 0.863451 0.91673 0.873751 0.916668H0.878335C0.889257 0.915411 0.89924 0.909888 0.906108 0.901303C0.912976 0.892718 0.916173 0.881766 0.915001 0.870834C0.906647 0.795676 0.877996 0.724209 0.83212 0.664093C0.786244 0.603977 0.724872 0.557479 0.654584 0.529584V0.529584ZM0.500001 0.500001C0.467037 0.500001 0.434814 0.490226 0.407405 0.471912C0.379997 0.453599 0.358635 0.427569 0.34602 0.397114C0.333406 0.36666 0.330105 0.333149 0.336536 0.300819C0.342967 0.268488 0.35884 0.238791 0.382149 0.215482C0.405458 0.192174 0.435155 0.1763 0.467485 0.169869C0.499816 0.163438 0.533327 0.166739 0.563781 0.179354C0.594236 0.191968 0.620265 0.21333 0.638579 0.240739C0.656893 0.268147 0.666668 0.30037 0.666668 0.333334C0.666668 0.377537 0.649108 0.419929 0.617852 0.451185C0.586596 0.482441 0.544203 0.500001 0.500001 0.500001Z" fill="#373737"/>
</svg>
