<svg width="1" height="1" viewBox="0 0 1 1" fill="none" xmlns="http://www.w3.org/2000/svg">
<path d="M0.791656 0.458323H0.541656V0.208323C0.541656 0.197272 0.537267 0.186674 0.529453 0.17886C0.521639 0.171046 0.51104 0.166656 0.49999 0.166656C0.488939 0.166656 0.478341 0.171046 0.470527 0.17886C0.462713 0.186674 0.458323 0.197272 0.458323 0.208323V0.458323H0.208323C0.197272 0.458323 0.186674 0.462713 0.17886 0.470527C0.171046 0.478341 0.166656 0.488939 0.166656 0.49999C0.166656 0.51104 0.171046 0.521639 0.17886 0.529453C0.186674 0.537267 0.197272 0.541656 0.208323 0.541656H0.458323V0.791656C0.458323 0.802707 0.462713 0.813305 0.470527 0.821119C0.478341 0.828933 0.488939 0.833323 0.49999 0.833323C0.51104 0.833323 0.521639 0.828933 0.529453 0.821119C0.537267 0.813305 0.541656 0.802707 0.541656 0.791656V0.541656H0.791656C0.802707 0.541656 0.813305 0.537267 0.821119 0.529453C0.828933 0.521639 0.833323 0.51104 0.833323 0.49999C0.833323 0.488939 0.828933 0.478341 0.821119 0.470527C0.813305 0.462713 0.802707 0.458323 0.791656 0.458323Z" fill="white"/>
</svg>
