<svg width="50" height="50" viewBox="0 0 50 50" fill="none" xmlns="http://www.w3.org/2000/svg">
<path d="M39.5833 22.9167H27.0833V10.4167C27.0833 9.86413 26.8638 9.33423 26.4731 8.94353C26.0824 8.55283 25.5525 8.33333 25 8.33333C24.4475 8.33333 23.9176 8.55283 23.5269 8.94353C23.1362 9.33423 22.9167 9.86413 22.9167 10.4167V22.9167H10.4167C9.86414 22.9167 9.33424 23.1362 8.94354 23.5269C8.55284 23.9176 8.33334 24.4475 8.33334 25C8.33334 25.5525 8.55284 26.0824 8.94354 26.4731C9.33424 26.8638 9.86414 27.0833 10.4167 27.0833H22.9167V39.5833C22.9167 40.1359 23.1362 40.6658 23.5269 41.0565C23.9176 41.4472 24.4475 41.6667 25 41.6667C25.5525 41.6667 26.0824 41.4472 26.4731 41.0565C26.8638 40.6658 27.0833 40.1359 27.0833 39.5833V27.0833H39.5833C40.1359 27.0833 40.6658 26.8638 41.0565 26.4731C41.4472 26.0824 41.6667 25.5525 41.6667 25C41.6667 24.4475 41.4472 23.9176 41.0565 23.5269C40.6658 23.1362 40.1359 22.9167 39.5833 22.9167Z" fill="#373737"/>
</svg>
