<svg width="1" height="1" viewBox="0 0 1 1" fill="none" xmlns="http://www.w3.org/2000/svg">
<path d="M0.647494 0.470413L0.411661 0.234996C0.407787 0.231091 0.403179 0.227991 0.398102 0.225876C0.393024 0.223761 0.387578 0.222672 0.382077 0.222672C0.376577 0.222672 0.371131 0.223761 0.366053 0.225876C0.360976 0.227991 0.356368 0.231091 0.352494 0.234996C0.344734 0.242803 0.340378 0.253364 0.340378 0.264371C0.340378 0.275379 0.344734 0.28594 0.352494 0.293746L0.558744 0.50208L0.352494 0.708329C0.344734 0.716136 0.340378 0.726697 0.340378 0.737704C0.340378 0.748712 0.344734 0.759273 0.352494 0.767079C0.356353 0.771016 0.360955 0.774148 0.366033 0.776294C0.371111 0.77844 0.376565 0.779556 0.382077 0.779579C0.38759 0.779556 0.393044 0.77844 0.398122 0.776294C0.4032 0.774148 0.407802 0.771016 0.411661 0.767079L0.647494 0.531663C0.651724 0.527761 0.655099 0.523026 0.657408 0.517755C0.659716 0.512484 0.660908 0.506792 0.660908 0.501038C0.660908 0.495284 0.659716 0.489592 0.657408 0.484321C0.655099 0.47905 0.651724 0.474315 0.647494 0.470413V0.470413Z" fill="#FD7272"/>
</svg>
