<svg width="50" height="50" viewBox="0 0 50 50" fill="none" xmlns="http://www.w3.org/2000/svg">
<path d="M44.7917 31.25C44.787 29.9994 44.4074 28.779 43.7017 27.7465C42.996 26.714 41.9968 25.9169 40.8333 25.4583L44.7292 10.875C44.8105 10.5644 44.819 10.2392 44.754 9.92483C44.6889 9.61042 44.5521 9.3153 44.3542 9.06251C44.1518 8.82565 43.8989 8.63718 43.6141 8.51099C43.3292 8.3848 43.0197 8.32409 42.7083 8.33334H14.1667L13.4792 5.70834C13.3596 5.26441 13.0966 4.87248 12.7311 4.59362C12.3656 4.31477 11.9181 4.16466 11.4583 4.16668H7.29166V8.33334H9.85416L15.0208 27.625C15.1429 28.0795 15.4153 28.4793 15.7936 28.7592C16.1719 29.0392 16.6338 29.1828 17.1042 29.1667H38.5417C39.0942 29.1667 39.6241 29.3862 40.0148 29.7769C40.4055 30.1676 40.625 30.6975 40.625 31.25C40.625 31.8025 40.4055 32.3324 40.0148 32.7232C39.6241 33.1139 39.0942 33.3333 38.5417 33.3333H11.4583C10.9058 33.3333 10.3759 33.5528 9.98519 33.9435C9.59449 34.3342 9.375 34.8641 9.375 35.4167C9.375 35.9692 9.59449 36.4991 9.98519 36.8898C10.3759 37.2805 10.9058 37.5 11.4583 37.5H13.9167C13.574 38.444 13.4639 39.4567 13.5957 40.4523C13.7274 41.4479 14.0972 42.3971 14.6736 43.2195C15.25 44.0419 16.0161 44.7133 16.907 45.1768C17.7979 45.6403 18.7874 45.8824 19.7917 45.8824C20.7959 45.8824 21.7854 45.6403 22.6763 45.1768C23.5673 44.7133 24.3333 44.0419 24.9097 43.2195C25.4862 42.3971 25.8559 41.4479 25.9876 40.4523C26.1194 39.4567 26.0093 38.444 25.6667 37.5H30.5833C30.2714 38.3596 30.1519 39.2772 30.2333 40.188C30.3147 41.0988 30.5949 41.9806 31.0543 42.7713C31.5136 43.562 32.1408 44.2423 32.8917 44.7641C33.6426 45.286 34.4989 45.6367 35.4001 45.7916C36.3014 45.9464 37.2256 45.9016 38.1076 45.6603C38.9897 45.4191 39.808 44.9872 40.5049 44.3952C41.2018 43.8031 41.7603 43.0654 42.1411 42.234C42.5218 41.4026 42.7154 40.4978 42.7083 39.5833C42.7045 38.507 42.417 37.4507 41.875 36.5208C42.7659 35.9592 43.5004 35.1815 44.0103 34.26C44.5202 33.3385 44.789 32.3032 44.7917 31.25V31.25ZM36.6458 25H18.75L15.2917 12.5H40L36.6458 25ZM19.7917 41.6667C19.3796 41.6667 18.9768 41.5445 18.6342 41.3156C18.2916 41.0867 18.0246 40.7613 17.8669 40.3806C17.7092 39.9999 17.668 39.581 17.7484 39.1769C17.8287 38.7728 18.0272 38.4016 18.3185 38.1102C18.6099 37.8188 18.9811 37.6204 19.3852 37.54C19.7894 37.4597 20.2082 37.5009 20.5889 37.6586C20.9696 37.8163 21.295 38.0833 21.5239 38.4259C21.7528 38.7685 21.875 39.1713 21.875 39.5833C21.875 40.1359 21.6555 40.6658 21.2648 41.0565C20.8741 41.4472 20.3442 41.6667 19.7917 41.6667ZM36.4583 41.6667C36.0463 41.6667 35.6435 41.5445 35.3009 41.3156C34.9583 41.0867 34.6913 40.7613 34.5336 40.3806C34.3759 39.9999 34.3346 39.581 34.415 39.1769C34.4954 38.7728 34.6938 38.4016 34.9852 38.1102C35.2765 37.8188 35.6478 37.6204 36.0519 37.54C36.456 37.4597 36.8749 37.5009 37.2556 37.6586C37.6363 37.8163 37.9616 38.0833 38.1906 38.4259C38.4195 38.7685 38.5417 39.1713 38.5417 39.5833C38.5417 40.1359 38.3222 40.6658 37.9315 41.0565C37.5408 41.4472 37.0109 41.6667 36.4583 41.6667Z" fill="white"/>
</svg>
