<svg width="1" height="1" viewBox="0 0 1 1" fill="none" xmlns="http://www.w3.org/2000/svg">
<path d="M0.895836 0.625003C0.895744 0.599991 0.88815 0.575582 0.874037 0.554932C0.859923 0.534282 0.839939 0.518341 0.816669 0.50917L0.894586 0.217503C0.896214 0.211291 0.896384 0.204788 0.895083 0.198499C0.893782 0.192211 0.891045 0.186309 0.887086 0.181253C0.883039 0.176516 0.877981 0.172746 0.872284 0.170223C0.866587 0.167699 0.860397 0.166485 0.854169 0.16667H0.283336L0.269586 0.11417C0.267195 0.105291 0.261935 0.0974523 0.254624 0.0918752C0.247314 0.0862982 0.238364 0.0832959 0.229169 0.0833363H0.145836V0.16667H0.197086L0.300419 0.552503C0.302861 0.561593 0.308308 0.569589 0.315874 0.575187C0.32344 0.580786 0.332679 0.583659 0.342086 0.583336H0.770836C0.781887 0.583336 0.792485 0.587726 0.800299 0.59554C0.808113 0.603354 0.812503 0.613952 0.812503 0.625003C0.812503 0.636054 0.808113 0.646652 0.800299 0.654466C0.792485 0.66228 0.781887 0.66667 0.770836 0.66667H0.229169C0.218119 0.66667 0.20752 0.671059 0.199706 0.678873C0.191892 0.686687 0.187503 0.697286 0.187503 0.708336C0.187503 0.719387 0.191892 0.729985 0.199706 0.737799C0.20752 0.745613 0.218119 0.750003 0.229169 0.750003H0.278336C0.271483 0.768883 0.269281 0.789137 0.271916 0.809049C0.274551 0.828961 0.281946 0.847945 0.293474 0.864393C0.305002 0.880841 0.320324 0.894269 0.338142 0.903539C0.35596 0.91281 0.37575 0.91765 0.395836 0.91765C0.415921 0.91765 0.435711 0.91281 0.45353 0.903539C0.471348 0.894269 0.48667 0.880841 0.498198 0.864393C0.509726 0.847945 0.51712 0.828961 0.519755 0.809049C0.522391 0.789137 0.520189 0.768883 0.513336 0.750003H0.611669C0.605431 0.767195 0.603041 0.785546 0.604669 0.803762C0.606296 0.821978 0.611901 0.839615 0.621088 0.855429C0.630274 0.871243 0.642819 0.884849 0.657838 0.895286C0.672856 0.905723 0.689981 0.912737 0.708006 0.915834C0.72603 0.918931 0.744515 0.918035 0.762155 0.91321C0.779796 0.908384 0.796162 0.899746 0.810101 0.887906C0.824039 0.876065 0.83521 0.861311 0.842824 0.844682C0.850438 0.828054 0.854311 0.809958 0.854169 0.79167C0.854092 0.770143 0.848343 0.749017 0.837503 0.73042C0.85532 0.719186 0.87001 0.703632 0.880208 0.685203C0.890406 0.666774 0.895782 0.646066 0.895836 0.625003V0.625003ZM0.732919 0.500003H0.375003L0.305836 0.250003H0.800003L0.732919 0.500003ZM0.395836 0.833336C0.387595 0.833336 0.379539 0.830893 0.372687 0.826314C0.365835 0.821736 0.360495 0.815228 0.357341 0.807615C0.354187 0.800001 0.353362 0.791623 0.35497 0.783541C0.356578 0.775458 0.360546 0.768034 0.366373 0.762207C0.3722 0.75638 0.379625 0.752411 0.387707 0.750804C0.39579 0.749196 0.404167 0.750021 0.411781 0.753175C0.419395 0.756328 0.425902 0.761669 0.43048 0.768521C0.435059 0.775373 0.437503 0.783429 0.437503 0.79167C0.437503 0.80272 0.433113 0.813318 0.425299 0.821132C0.417485 0.828946 0.406887 0.833336 0.395836 0.833336ZM0.729169 0.833336C0.720928 0.833336 0.712872 0.830893 0.70602 0.826314C0.699168 0.821736 0.693828 0.815228 0.690674 0.807615C0.687521 0.800001 0.686695 0.791623 0.688303 0.783541C0.689911 0.775458 0.693879 0.768034 0.699706 0.762207C0.705534 0.75638 0.712958 0.752411 0.72104 0.750804C0.729123 0.749196 0.737501 0.750021 0.745114 0.753175C0.752728 0.756328 0.759235 0.761669 0.763814 0.768521C0.768392 0.775373 0.770836 0.783429 0.770836 0.79167C0.770836 0.80272 0.766446 0.813318 0.758632 0.821132C0.750818 0.828946 0.74022 0.833336 0.729169 0.833336Z" fill="#373737"/>
</svg>
