<svg width="1" height="1" viewBox="0 0 1 1" fill="none" xmlns="http://www.w3.org/2000/svg">
<path d="M0.50001 0.333328C0.477909 0.333328 0.456713 0.342108 0.441085 0.357736C0.425457 0.373364 0.416677 0.39456 0.416677 0.416662C0.416765 0.431204 0.420657 0.445471 0.427966 0.458044C0.435276 0.470616 0.445749 0.481057 0.458343 0.488328V0.624995C0.458343 0.636046 0.462733 0.646644 0.470547 0.654458C0.478361 0.662272 0.488959 0.666662 0.50001 0.666662C0.511061 0.666662 0.521659 0.662272 0.529473 0.654458C0.537287 0.646644 0.541677 0.636046 0.541677 0.624995V0.488328C0.554272 0.481057 0.564744 0.470616 0.572054 0.458044C0.579363 0.445471 0.583256 0.431204 0.583343 0.416662C0.583343 0.39456 0.574564 0.373364 0.558936 0.357736C0.543308 0.342108 0.522111 0.333328 0.50001 0.333328V0.333328ZM0.50001 0.0833282C0.417601 0.0833282 0.337043 0.107765 0.268523 0.153549C0.200002 0.199333 0.146597 0.264408 0.115061 0.340543C0.083524 0.416679 0.0752727 0.500457 0.0913498 0.581283C0.107427 0.662108 0.147111 0.736351 0.205382 0.794623C0.263654 0.852895 0.337897 0.892578 0.418723 0.908656C0.499548 0.924733 0.583326 0.916481 0.659461 0.884945C0.735597 0.853408 0.800672 0.800003 0.846455 0.731483C0.892239 0.662962 0.916676 0.582404 0.916676 0.499995C0.916676 0.445277 0.905899 0.391096 0.88496 0.340543C0.86402 0.289991 0.833329 0.244058 0.794638 0.205367C0.755947 0.166676 0.710014 0.135985 0.659461 0.115045C0.608909 0.0941057 0.554727 0.0833282 0.50001 0.0833282V0.0833282ZM0.50001 0.833328C0.434083 0.833328 0.369636 0.813779 0.31482 0.777151C0.260004 0.740524 0.21728 0.688465 0.19205 0.627556C0.166821 0.566647 0.16022 0.499625 0.173082 0.434965C0.185944 0.370304 0.21769 0.31091 0.264308 0.264293C0.310925 0.217675 0.37032 0.185928 0.43498 0.173066C0.49964 0.160205 0.566662 0.166806 0.627571 0.192035C0.68848 0.217264 0.740539 0.259988 0.777166 0.314805C0.813793 0.369621 0.833343 0.434068 0.833343 0.499995C0.833343 0.5884 0.798224 0.673185 0.735712 0.735697C0.6732 0.798209 0.588416 0.833328 0.50001 0.833328V0.833328Z" fill="#373737"/>
</svg>
