<svg width="50" height="50" viewBox="0 0 50 50" fill="none" xmlns="http://www.w3.org/2000/svg">
<path d="M25 16.6667C23.8949 16.6667 22.8351 17.1057 22.0537 17.8871C21.2723 18.6685 20.8333 19.7283 20.8333 20.8333C20.8377 21.5605 21.0323 22.2738 21.3978 22.9024C21.7633 23.5311 22.2869 24.0531 22.9167 24.4167V31.25C22.9167 31.8025 23.1362 32.3324 23.5269 32.7231C23.9176 33.1138 24.4475 33.3333 25 33.3333C25.5525 33.3333 26.0824 33.1138 26.4731 32.7231C26.8638 32.3324 27.0833 31.8025 27.0833 31.25V24.4167C27.7131 24.0531 28.2367 23.5311 28.6022 22.9024C28.9677 22.2738 29.1623 21.5605 29.1667 20.8333C29.1667 19.7283 28.7277 18.6685 27.9463 17.8871C27.1649 17.1057 26.1051 16.6667 25 16.6667V16.6667ZM25 4.16667C20.8796 4.16667 16.8516 5.38853 13.4256 7.67772C9.9996 9.96692 7.32933 13.2206 5.75251 17.0274C4.17568 20.8342 3.76311 25.0231 4.56697 29.0644C5.37083 33.1057 7.35501 36.8178 10.2686 39.7314C13.1822 42.645 16.8943 44.6292 20.9356 45.433C24.9769 46.2369 29.1658 45.8243 32.9726 44.2475C36.7794 42.6707 40.0331 40.0004 42.3223 36.5744C44.6115 33.1484 45.8333 29.1204 45.8333 25C45.8333 22.2641 45.2945 19.555 44.2475 17.0274C43.2005 14.4998 41.6659 12.2032 39.7314 10.2686C37.7968 8.33406 35.5002 6.79949 32.9726 5.75251C30.445 4.70554 27.7359 4.16667 25 4.16667V4.16667ZM25 41.6667C21.7036 41.6667 18.4813 40.6892 15.7405 38.8578C12.9997 37.0265 10.8635 34.4235 9.60201 31.3781C8.34055 28.3326 8.01049 24.9815 8.65358 21.7485C9.29667 18.5155 10.884 15.5458 13.2149 13.2149C15.5458 10.884 18.5155 9.29667 21.7485 8.65358C24.9815 8.0105 28.3326 8.34055 31.3781 9.60201C34.4235 10.8635 37.0265 12.9997 38.8578 15.7405C40.6892 18.4813 41.6667 21.7036 41.6667 25C41.6667 29.4203 39.9107 33.6595 36.7851 36.7851C33.6595 39.9107 29.4203 41.6667 25 41.6667V41.6667Z" fill="#373737"/>
</svg>
