<svg width="1" height="1" viewBox="0 0 1 1" fill="none" xmlns="http://www.w3.org/2000/svg">
<path d="M0.558747 0.5L0.737914 0.32125C0.74576 0.313404 0.750168 0.302763 0.750168 0.291667C0.750168 0.280571 0.74576 0.269929 0.737914 0.262083C0.730068 0.254237 0.719427 0.24983 0.708331 0.24983C0.697235 0.24983 0.686593 0.254237 0.678747 0.262083L0.499997 0.44125L0.321247 0.262083C0.313401 0.254237 0.30276 0.24983 0.291664 0.24983C0.280568 0.24983 0.269927 0.254237 0.262081 0.262083C0.254235 0.269929 0.249827 0.280571 0.249827 0.291667C0.249827 0.302763 0.254235 0.313404 0.262081 0.32125L0.441247 0.5L0.262081 0.67875C0.258175 0.682623 0.255076 0.687231 0.25296 0.692309C0.250845 0.697386 0.249756 0.702832 0.249756 0.708333C0.249756 0.713833 0.250845 0.719279 0.25296 0.724357C0.255076 0.729434 0.258175 0.734043 0.262081 0.737916C0.265954 0.741822 0.270563 0.744921 0.27564 0.747037C0.280718 0.749152 0.286164 0.750241 0.291664 0.750241C0.297165 0.750241 0.302611 0.749152 0.307688 0.747037C0.312766 0.744921 0.317374 0.741822 0.321247 0.737916L0.499997 0.55875L0.678747 0.737916C0.682621 0.741822 0.687229 0.744921 0.692307 0.747037C0.697384 0.749152 0.70283 0.750241 0.708331 0.750241C0.713831 0.750241 0.719277 0.749152 0.724355 0.747037C0.729432 0.744921 0.734041 0.741822 0.737914 0.737916C0.741819 0.734043 0.744919 0.729434 0.747035 0.724357C0.74915 0.719279 0.750239 0.713833 0.750239 0.708333C0.750239 0.702832 0.74915 0.697386 0.747035 0.692309C0.744919 0.687231 0.741819 0.682623 0.737914 0.67875L0.558747 0.5Z" fill="#373737"/>
</svg>
