<svg width="50" height="50" viewBox="0 0 50 50" fill="none" xmlns="http://www.w3.org/2000/svg">
<path d="M27.9375 25L36.8958 16.0625C37.2881 15.6702 37.5085 15.1381 37.5085 14.5833C37.5085 14.0285 37.2881 13.4965 36.8958 13.1042C36.5035 12.7119 35.9715 12.4915 35.4167 12.4915C34.8619 12.4915 34.3298 12.7119 33.9375 13.1042L25 22.0625L16.0625 13.1042C15.6702 12.7119 15.1381 12.4915 14.5833 12.4915C14.0285 12.4915 13.4965 12.7119 13.1042 13.1042C12.7119 13.4965 12.4915 14.0285 12.4915 14.5833C12.4915 15.1381 12.7119 15.6702 13.1042 16.0625L22.0625 25L13.1042 33.9375C12.9089 34.1312 12.7539 34.3616 12.6481 34.6155C12.5424 34.8693 12.4879 35.1416 12.4879 35.4167C12.4879 35.6917 12.5424 35.964 12.6481 36.2179C12.7539 36.4717 12.9089 36.7022 13.1042 36.8958C13.2978 37.0911 13.5283 37.2461 13.7821 37.3519C14.036 37.4576 14.3083 37.5121 14.5833 37.5121C14.8584 37.5121 15.1307 37.4576 15.3845 37.3519C15.6384 37.2461 15.8688 37.0911 16.0625 36.8958L25 27.9375L33.9375 36.8958C34.1312 37.0911 34.3616 37.2461 34.6155 37.3519C34.8693 37.4576 35.1416 37.5121 35.4167 37.5121C35.6917 37.5121 35.964 37.4576 36.2179 37.3519C36.4717 37.2461 36.7021 37.0911 36.8958 36.8958C37.0911 36.7022 37.2461 36.4717 37.3518 36.2179C37.4576 35.964 37.5121 35.6917 37.5121 35.4167C37.5121 35.1416 37.4576 34.8693 37.3518 34.6155C37.2461 34.3616 37.0911 34.1312 36.8958 33.9375L27.9375 25Z" fill="#373737"/>
</svg>
