<svg width="1" height="1" viewBox="0 0 1 1" fill="none" xmlns="http://www.w3.org/2000/svg">
<path d="M0.37498 0.487919L0.387063 0.475419L0.399146 0.487919C0.40302 0.491825 0.407628 0.494924 0.412706 0.49704C0.417783 0.499155 0.423229 0.500244 0.42873 0.500244C0.43423 0.500244 0.439676 0.499155 0.444754 0.49704C0.449831 0.494924 0.454439 0.491825 0.458313 0.487919C0.462218 0.484046 0.465318 0.479437 0.467433 0.47436C0.469549 0.469282 0.470638 0.463836 0.470638 0.458336C0.470638 0.452835 0.469549 0.447389 0.467433 0.442312C0.465318 0.437234 0.462218 0.432626 0.458313 0.428753L0.445813 0.416669L0.458313 0.404586C0.466159 0.396519 0.470479 0.385665 0.470323 0.374413C0.470166 0.363161 0.465547 0.352432 0.45748 0.344586C0.449413 0.33674 0.438559 0.33242 0.427307 0.332576C0.416055 0.332732 0.405326 0.337352 0.39748 0.345419L0.385396 0.357919L0.37498 0.345419C0.367134 0.337352 0.356404 0.332732 0.345152 0.332576C0.3339 0.33242 0.323047 0.33674 0.31498 0.344586C0.306913 0.352432 0.302293 0.363161 0.302137 0.374413C0.30198 0.385665 0.3063 0.396519 0.314146 0.404586L0.326646 0.416669L0.314146 0.428753C0.310241 0.432626 0.307141 0.437234 0.305026 0.442312C0.302911 0.447389 0.301821 0.452835 0.301821 0.458336C0.301821 0.463836 0.302911 0.469282 0.305026 0.47436C0.307141 0.479437 0.310241 0.484046 0.314146 0.487919C0.31802 0.491825 0.322628 0.494924 0.327706 0.49704C0.332783 0.499155 0.338229 0.500244 0.34373 0.500244C0.34923 0.500244 0.354676 0.499155 0.359754 0.49704C0.364831 0.494924 0.36944 0.491825 0.373313 0.487919H0.37498ZM0.34998 0.638753C0.341581 0.645806 0.336303 0.655886 0.335289 0.666807C0.334275 0.677727 0.337607 0.688607 0.344563 0.697086C0.348061 0.701305 0.352357 0.704793 0.357205 0.707349C0.362052 0.709905 0.367357 0.71148 0.372814 0.711983C0.378272 0.712486 0.383775 0.711908 0.389008 0.710281C0.394241 0.708654 0.399103 0.706011 0.403313 0.702503C0.431166 0.680046 0.465867 0.667799 0.501646 0.667799C0.537425 0.667799 0.572126 0.680046 0.599979 0.702503C0.60419 0.706011 0.609051 0.708654 0.614284 0.710281C0.619518 0.711908 0.625021 0.712486 0.630478 0.711983C0.635936 0.71148 0.64124 0.709905 0.646088 0.707349C0.650936 0.704793 0.655232 0.701305 0.658729 0.697086C0.665685 0.688607 0.669018 0.677727 0.668004 0.666807C0.66699 0.655886 0.661711 0.645806 0.653313 0.638753C0.610186 0.603771 0.556343 0.58468 0.500813 0.58468C0.445282 0.58468 0.39144 0.603771 0.348313 0.638753H0.34998ZM0.49998 0.0833359C0.417571 0.0833359 0.337013 0.107773 0.268492 0.153557C0.199972 0.199341 0.146567 0.264415 0.11503 0.340551C0.0834935 0.416687 0.0752421 0.500465 0.0913193 0.58129C0.107396 0.662116 0.14708 0.736359 0.205352 0.79463C0.263624 0.852902 0.337867 0.892586 0.418692 0.908663C0.499517 0.92474 0.583295 0.916489 0.659431 0.884952C0.735567 0.853416 0.800641 0.800011 0.846425 0.73149C0.892209 0.66297 0.916646 0.582411 0.916646 0.500003C0.916646 0.445285 0.905869 0.391103 0.884929 0.340551C0.86399 0.289999 0.833298 0.244066 0.794607 0.205375C0.755916 0.166684 0.709983 0.135992 0.659431 0.115053C0.608879 0.0941133 0.554697 0.0833359 0.49998 0.0833359V0.0833359ZM0.49998 0.833336C0.434053 0.833336 0.369606 0.813786 0.31479 0.777159C0.259973 0.740532 0.217249 0.688472 0.19202 0.627564C0.166791 0.566655 0.16019 0.499633 0.173051 0.434972C0.185913 0.370312 0.21766 0.310918 0.264277 0.2643C0.310895 0.217683 0.370289 0.185936 0.43495 0.173074C0.49961 0.160212 0.566632 0.166814 0.627541 0.192043C0.688449 0.217272 0.740509 0.259996 0.777136 0.314812C0.813763 0.369629 0.833313 0.434075 0.833313 0.500003C0.833313 0.588408 0.798194 0.673193 0.735682 0.735705C0.67317 0.798217 0.588385 0.833336 0.49998 0.833336V0.833336ZM0.708313 0.345419C0.704439 0.341514 0.699831 0.338414 0.694753 0.336299C0.689676 0.334183 0.68423 0.333094 0.678729 0.333094C0.673229 0.333094 0.667783 0.334183 0.662705 0.336299C0.657628 0.338414 0.65302 0.341514 0.649146 0.345419L0.637063 0.357919L0.624979 0.345419C0.617133 0.337573 0.606492 0.333165 0.595396 0.333165C0.5843 0.333165 0.573659 0.337573 0.565813 0.345419C0.557967 0.353265 0.553559 0.363907 0.553559 0.375003C0.553559 0.386098 0.557967 0.39674 0.565813 0.404586L0.578313 0.416669L0.565813 0.428753C0.561908 0.432626 0.558808 0.437234 0.556692 0.442312C0.554577 0.447389 0.553488 0.452835 0.553488 0.458336C0.553488 0.463836 0.554577 0.469282 0.556692 0.47436C0.558808 0.479437 0.561908 0.484046 0.565813 0.487919C0.569686 0.491825 0.574295 0.494924 0.579372 0.49704C0.58445 0.499155 0.589896 0.500244 0.595396 0.500244C0.600897 0.500244 0.606343 0.499155 0.61142 0.49704C0.616498 0.494924 0.621106 0.491825 0.624979 0.487919L0.637063 0.475419L0.649146 0.487919C0.65302 0.491825 0.657628 0.494924 0.662705 0.49704C0.667783 0.499155 0.673229 0.500244 0.678729 0.500244C0.68423 0.500244 0.689676 0.499155 0.694753 0.49704C0.699831 0.494924 0.704439 0.491825 0.708313 0.487919C0.712218 0.484046 0.715318 0.479437 0.717433 0.47436C0.719549 0.469282 0.720638 0.463836 0.720638 0.458336C0.720638 0.452835 0.719549 0.447389 0.717433 0.442312C0.715318 0.437234 0.712218 0.432626 0.708313 0.428753L0.695813 0.416669L0.708313 0.404586C0.712218 0.400712 0.715318 0.396104 0.717433 0.391027C0.719549 0.385949 0.720638 0.380503 0.720638 0.375003C0.720638 0.369502 0.719549 0.364056 0.717433 0.358979C0.715318 0.353901 0.712218 0.349293 0.708313 0.345419Z" fill="#373737"/>
</svg>
