<svg width="50" height="50" viewBox="0 0 50 50" fill="none" xmlns="http://www.w3.org/2000/svg">
<path d="M18.75 24.3958L19.3542 23.7708L19.9584 24.3958C20.152 24.5911 20.3825 24.7461 20.6363 24.8518C20.8902 24.9576 21.1625 25.0121 21.4375 25.0121C21.7126 25.0121 21.9849 24.9576 22.2387 24.8518C22.4926 24.7461 22.723 24.5911 22.9167 24.3958C23.112 24.2021 23.267 23.9717 23.3727 23.7179C23.4785 23.464 23.5329 23.1917 23.5329 22.9167C23.5329 22.6416 23.4785 22.3693 23.3727 22.1155C23.267 21.8616 23.112 21.6312 22.9167 21.4375L22.2917 20.8333L22.9167 20.2292C23.309 19.8258 23.525 19.2831 23.5172 18.7205C23.5094 18.1579 23.2784 17.6215 22.875 17.2292C22.4717 16.8369 21.929 16.6209 21.3664 16.6287C20.8038 16.6365 20.2673 16.8675 19.875 17.2708L19.2709 17.8958L18.75 17.2708C18.3577 16.8675 17.8213 16.6365 17.2587 16.6287C16.6961 16.6209 16.1534 16.8369 15.75 17.2292C15.3467 17.6215 15.1157 18.1579 15.1079 18.7205C15.1001 19.2831 15.3161 19.8258 15.7084 20.2292L16.3334 20.8333L15.7084 21.4375C15.5131 21.6312 15.3581 21.8616 15.2523 22.1155C15.1466 22.3693 15.0921 22.6416 15.0921 22.9167C15.0921 23.1917 15.1466 23.464 15.2523 23.7179C15.3581 23.9717 15.5131 24.2021 15.7084 24.3958C15.902 24.5911 16.1325 24.7461 16.3863 24.8518C16.6402 24.9576 16.9125 25.0121 17.1875 25.0121C17.4626 25.0121 17.7349 24.9576 17.9887 24.8518C18.2426 24.7461 18.473 24.5911 18.6667 24.3958H18.75ZM17.5 31.9375C17.0801 32.2902 16.8162 32.7942 16.7655 33.3402C16.7148 33.8862 16.8814 34.4302 17.2292 34.8542C17.4041 35.0651 17.6189 35.2395 17.8613 35.3673C18.1037 35.4951 18.3689 35.5739 18.6418 35.599C18.9146 35.6242 19.1898 35.5953 19.4514 35.5139C19.7131 35.4326 19.9562 35.3004 20.1667 35.125C21.5594 34.0021 23.2944 33.3898 25.0834 33.3898C26.8723 33.3898 28.6074 34.0021 30 35.125C30.2105 35.3004 30.4536 35.4326 30.7153 35.5139C30.977 35.5953 31.2521 35.6242 31.525 35.599C31.7978 35.5739 32.0631 35.4951 32.3055 35.3673C32.5478 35.2395 32.7626 35.0651 32.9375 34.8542C33.2853 34.4302 33.452 33.8862 33.4013 33.3402C33.3505 32.7942 33.0866 32.2902 32.6667 31.9375C30.5103 30.1884 27.8182 29.2339 25.0417 29.2339C22.2652 29.2339 19.573 30.1884 17.4167 31.9375H17.5ZM25 4.16666C20.8796 4.16666 16.8517 5.38851 13.4257 7.67771C9.99963 9.9669 7.32937 13.2206 5.75254 17.0274C4.17571 20.8342 3.76314 25.0231 4.567 29.0644C5.37086 33.1056 7.35504 36.8178 10.2686 39.7314C13.1822 42.645 16.8944 44.6292 20.9357 45.433C24.9769 46.2369 29.1658 45.8243 32.9726 44.2475C36.7794 42.6707 40.0331 40.0004 42.3223 36.5744C44.6115 33.1483 45.8334 29.1204 45.8334 25C45.8334 22.2641 45.2945 19.555 44.2475 17.0274C43.2006 14.4998 41.666 12.2032 39.7314 10.2686C37.7969 8.33404 35.5002 6.79947 32.9726 5.7525C30.445 4.70553 27.7359 4.16666 25 4.16666V4.16666ZM25 41.6667C21.7037 41.6667 18.4813 40.6892 15.7405 38.8578C12.9997 37.0265 10.8635 34.4235 9.60204 31.378C8.34058 28.3326 8.01052 24.9815 8.65361 21.7485C9.2967 18.5155 10.884 15.5458 13.2149 13.2149C15.5458 10.884 18.5155 9.29666 21.7485 8.65357C24.9815 8.01048 28.3327 8.34054 31.3781 9.602C34.4235 10.8635 37.0265 12.9997 38.8579 15.7405C40.6892 18.4813 41.6667 21.7036 41.6667 25C41.6667 29.4203 39.9108 33.6595 36.7851 36.7851C33.6595 39.9107 29.4203 41.6667 25 41.6667V41.6667ZM35.4167 17.2708C35.223 17.0756 34.9926 16.9206 34.7387 16.8148C34.4849 16.709 34.2126 16.6546 33.9375 16.6546C33.6625 16.6546 33.3902 16.709 33.1363 16.8148C32.8825 16.9206 32.652 17.0756 32.4584 17.2708L31.8542 17.8958L31.25 17.2708C30.8577 16.8785 30.3257 16.6581 29.7709 16.6581C29.2161 16.6581 28.684 16.8785 28.2917 17.2708C27.8994 17.6631 27.679 18.1952 27.679 18.75C27.679 19.3048 27.8994 19.8369 28.2917 20.2292L28.9167 20.8333L28.2917 21.4375C28.0964 21.6312 27.9414 21.8616 27.8357 22.1155C27.7299 22.3693 27.6755 22.6416 27.6755 22.9167C27.6755 23.1917 27.7299 23.464 27.8357 23.7179C27.9414 23.9717 28.0964 24.2021 28.2917 24.3958C28.4854 24.5911 28.7158 24.7461 28.9697 24.8518C29.2235 24.9576 29.4958 25.0121 29.7709 25.0121C30.0459 25.0121 30.3182 24.9576 30.5721 24.8518C30.8259 24.7461 31.0564 24.5911 31.25 24.3958L31.8542 23.7708L32.4584 24.3958C32.652 24.5911 32.8825 24.7461 33.1363 24.8518C33.3902 24.9576 33.6625 25.0121 33.9375 25.0121C34.2126 25.0121 34.4849 24.9576 34.7387 24.8518C34.9926 24.7461 35.223 24.5911 35.4167 24.3958C35.612 24.2021 35.767 23.9717 35.8727 23.7179C35.9785 23.464 36.0329 23.1917 36.0329 22.9167C36.0329 22.6416 35.9785 22.3693 35.8727 22.1155C35.767 21.8616 35.612 21.6312 35.4167 21.4375L34.7917 20.8333L35.4167 20.2292C35.612 20.0355 35.767 19.8051 35.8727 19.5512C35.9785 19.2973 36.0329 19.025 36.0329 18.75C36.0329 18.475 35.9785 18.2027 35.8727 17.9488C35.767 17.6949 35.612 17.4645 35.4167 17.2708Z" fill="white"/>
</svg>
