<svg width="50" height="50" viewBox="0 0 50 50" fill="none" xmlns="http://www.w3.org/2000/svg">
<path d="M17.625 17.2708C17.2327 16.8675 16.6963 16.6365 16.1336 16.6287C15.571 16.6209 15.0284 16.8369 14.625 17.2292C14.2217 17.6215 13.9907 18.1579 13.9829 18.7205C13.975 19.2832 14.191 19.8258 14.5833 20.2292L19.4583 25L14.5833 29.7708C14.3881 29.9645 14.2331 30.1949 14.1273 30.4488C14.0216 30.7027 13.9671 30.975 13.9671 31.25C13.9671 31.525 14.0216 31.7973 14.1273 32.0512C14.2331 32.3051 14.3881 32.5355 14.5833 32.7292C14.777 32.9244 15.0074 33.0794 15.2613 33.1852C15.5152 33.291 15.7875 33.3454 16.0625 33.3454C16.3375 33.3454 16.6098 33.291 16.8637 33.1852C17.1176 33.0794 17.348 32.9244 17.5417 32.7292L23.7917 26.4792C23.987 26.2855 24.1419 26.0551 24.2477 25.8012C24.3535 25.5473 24.4079 25.275 24.4079 25C24.4079 24.725 24.3535 24.4527 24.2477 24.1988C24.1419 23.9449 23.987 23.7145 23.7917 23.5208L17.625 17.2708ZM35.3333 23.5208L29.0833 17.2708C28.6911 16.8785 28.159 16.6581 27.6042 16.6581C27.0494 16.6581 26.5173 16.8785 26.125 17.2708C25.7327 17.6631 25.5123 18.1952 25.5123 18.75C25.5123 19.3048 25.7327 19.8369 26.125 20.2292L30.9167 25L26.125 29.7708C25.9297 29.9645 25.7748 30.1949 25.669 30.4488C25.5632 30.7027 25.5088 30.975 25.5088 31.25C25.5088 31.525 25.5632 31.7973 25.669 32.0512C25.7748 32.3051 25.9297 32.5355 26.125 32.7292C26.3187 32.9244 26.5491 33.0794 26.803 33.1852C27.0569 33.291 27.3292 33.3454 27.6042 33.3454C27.8792 33.3454 28.1515 33.291 28.4054 33.1852C28.6593 33.0794 28.8897 32.9244 29.0833 32.7292L35.3333 26.4792C35.5342 26.2911 35.6957 26.065 35.8087 25.8141C35.9217 25.5632 35.9839 25.2924 35.9916 25.0174C35.9994 24.7423 35.9525 24.4685 35.8539 24.2116C35.7552 23.9547 35.6066 23.72 35.4167 23.5208H35.3333Z" fill="white"/>
</svg>
