<svg width="1" height="1" viewBox="0 0 1 1" fill="none" xmlns="http://www.w3.org/2000/svg">
<path d="M0.352516 0.345428C0.34467 0.337361 0.333941 0.332741 0.322689 0.332585C0.311437 0.332428 0.300583 0.336748 0.292516 0.344594C0.284449 0.35244 0.279829 0.36317 0.279673 0.374422C0.279517 0.385674 0.283837 0.396528 0.291683 0.404595L0.389183 0.500012L0.291683 0.595428C0.287777 0.599302 0.284678 0.60391 0.282562 0.608988C0.280447 0.614065 0.279358 0.619511 0.279358 0.625012C0.279358 0.630512 0.280447 0.635958 0.282562 0.641036C0.284678 0.646113 0.287777 0.650722 0.291683 0.654595C0.295556 0.658501 0.300165 0.6616 0.305242 0.663716C0.31032 0.665831 0.315766 0.66692 0.321266 0.66692C0.326767 0.66692 0.332213 0.665831 0.33729 0.663716C0.342368 0.6616 0.346976 0.658501 0.35085 0.654595L0.47585 0.529595C0.479755 0.525721 0.482855 0.521113 0.48497 0.516036C0.487085 0.510958 0.488174 0.505512 0.488174 0.500012C0.488174 0.494511 0.487085 0.489065 0.48497 0.483987C0.482855 0.47891 0.479755 0.474302 0.47585 0.470428L0.352516 0.345428ZM0.706683 0.470428L0.581683 0.345428C0.573837 0.337582 0.563195 0.333174 0.5521 0.333174C0.541004 0.333174 0.530362 0.337582 0.522516 0.345428C0.51467 0.353274 0.510262 0.363915 0.510262 0.375011C0.510262 0.386107 0.51467 0.396749 0.522516 0.404595L0.61835 0.500012L0.522516 0.595428C0.518611 0.599302 0.515511 0.60391 0.513396 0.608988C0.51128 0.614065 0.510191 0.619511 0.510191 0.625012C0.510191 0.630512 0.51128 0.635958 0.513396 0.641036C0.515511 0.646113 0.518611 0.650722 0.522516 0.654595C0.52639 0.658501 0.530998 0.6616 0.536075 0.663716C0.541153 0.665831 0.546599 0.66692 0.5521 0.66692C0.5576 0.66692 0.563046 0.665831 0.568124 0.663716C0.573201 0.6616 0.577809 0.658501 0.581683 0.654595L0.706683 0.529595C0.710699 0.525833 0.713931 0.521312 0.71619 0.516294C0.71845 0.511276 0.719693 0.50586 0.719848 0.500359C0.720003 0.494858 0.719067 0.48938 0.717093 0.484243C0.71512 0.479106 0.712148 0.474411 0.70835 0.470428H0.706683Z" fill="white"/>
</svg>
