<svg width="50" height="50" viewBox="0 0 50 50" fill="none" xmlns="http://www.w3.org/2000/svg">
<path d="M45.6667 24.1667C41.4583 14.3958 33.5417 8.33334 25 8.33334C16.4583 8.33334 8.54165 14.3958 4.33332 24.1667C4.2186 24.4295 4.15939 24.7132 4.15939 25C4.15939 25.2868 4.2186 25.5705 4.33332 25.8333C8.54165 35.6042 16.4583 41.6667 25 41.6667C33.5417 41.6667 41.4583 35.6042 45.6667 25.8333C45.7814 25.5705 45.8406 25.2868 45.8406 25C45.8406 24.7132 45.7814 24.4295 45.6667 24.1667V24.1667ZM25 37.5C18.3958 37.5 12.1458 32.7292 8.54165 25C12.1458 17.2708 18.3958 12.5 25 12.5C31.6042 12.5 37.8542 17.2708 41.4583 25C37.8542 32.7292 31.6042 37.5 25 37.5ZM25 16.6667C23.3518 16.6667 21.7406 17.1554 20.3702 18.0711C18.9998 18.9868 17.9317 20.2883 17.301 21.811C16.6703 23.3337 16.5052 25.0093 16.8268 26.6258C17.1483 28.2423 17.942 29.7271 19.1074 30.8926C20.2729 32.058 21.7577 32.8517 23.3742 33.1732C24.9907 33.4948 26.6663 33.3297 28.189 32.699C29.7117 32.0683 31.0132 31.0002 31.9289 29.6298C32.8446 28.2593 33.3333 26.6482 33.3333 25C33.3333 22.7899 32.4553 20.6703 30.8925 19.1075C29.3297 17.5446 27.2101 16.6667 25 16.6667V16.6667ZM25 29.1667C24.1759 29.1667 23.3703 28.9223 22.6851 28.4645C21.9999 28.0066 21.4659 27.3559 21.1505 26.5945C20.8351 25.8332 20.7526 24.9954 20.9134 24.1871C21.0742 23.3789 21.471 22.6364 22.0537 22.0537C22.6364 21.471 23.3789 21.0742 24.1871 20.9134C24.9954 20.7526 25.8331 20.8351 26.5945 21.1505C27.3559 21.4659 28.0066 21.9999 28.4644 22.6851C28.9223 23.3703 29.1667 24.1759 29.1667 25C29.1667 26.1051 28.7277 27.1649 27.9463 27.9463C27.1649 28.7277 26.1051 29.1667 25 29.1667Z" fill="white"/>
</svg>
