<svg width="1" height="1" viewBox="0 0 1 1" fill="none" xmlns="http://www.w3.org/2000/svg">
<path d="M0.913336 0.483331C0.829169 0.287914 0.670836 0.166664 0.500003 0.166664C0.329169 0.166664 0.170836 0.287914 0.0866694 0.483331C0.0843751 0.488588 0.0831909 0.494262 0.0831909 0.499997C0.0831909 0.505733 0.0843751 0.511407 0.0866694 0.516664C0.170836 0.712081 0.329169 0.833331 0.500003 0.833331C0.670836 0.833331 0.829169 0.712081 0.913336 0.516664C0.91563 0.511407 0.916815 0.505733 0.916815 0.499997C0.916815 0.494262 0.91563 0.488588 0.913336 0.483331V0.483331ZM0.500003 0.749997C0.367919 0.749997 0.242919 0.654581 0.170836 0.499997C0.242919 0.345414 0.367919 0.249997 0.500003 0.249997C0.632086 0.249997 0.757086 0.345414 0.829169 0.499997C0.757086 0.654581 0.632086 0.749997 0.500003 0.749997ZM0.500003 0.333331C0.467039 0.333331 0.434816 0.343106 0.407408 0.361419C0.38 0.379733 0.358637 0.405763 0.346023 0.436217C0.333408 0.466671 0.330108 0.500182 0.336539 0.532512C0.342969 0.564843 0.358843 0.59454 0.382152 0.617849C0.40546 0.641157 0.435158 0.657031 0.467488 0.663462C0.499818 0.669893 0.533329 0.666592 0.563783 0.653977C0.594238 0.641363 0.620267 0.620001 0.638581 0.592592C0.656895 0.565184 0.666669 0.532961 0.666669 0.499997C0.666669 0.455795 0.64911 0.413402 0.617854 0.382146C0.586598 0.35089 0.544206 0.333331 0.500003 0.333331V0.333331ZM0.500003 0.583331C0.483521 0.583331 0.467409 0.578443 0.453705 0.569287C0.440001 0.56013 0.42932 0.547115 0.423013 0.531888C0.416705 0.516661 0.415055 0.499905 0.418271 0.48374C0.421486 0.467575 0.429423 0.452726 0.441077 0.441072C0.452732 0.429418 0.46758 0.421481 0.483745 0.418265C0.49991 0.41505 0.516666 0.4167 0.531893 0.423007C0.54712 0.429315 0.560135 0.439996 0.569292 0.4537C0.578449 0.467404 0.583336 0.483516 0.583336 0.499997C0.583336 0.522099 0.574556 0.543295 0.558928 0.558923C0.5433 0.574551 0.522104 0.583331 0.500003 0.583331Z" fill="#373737"/>
</svg>
