<svg width="50" height="50" viewBox="0 0 50 50" fill="none" xmlns="http://www.w3.org/2000/svg">
<path d="M43.5417 4.16666H6.45834C5.85055 4.16666 5.26766 4.4081 4.83789 4.83787C4.40811 5.26764 4.16667 5.85054 4.16667 6.45832V43.5417C4.16667 43.8426 4.22595 44.1406 4.34111 44.4186C4.45628 44.6967 4.62508 44.9493 4.83789 45.1621C5.05069 45.3749 5.30332 45.5437 5.58136 45.6589C5.85939 45.7741 6.15739 45.8333 6.45834 45.8333H26.4167V29.6875H21V23.4375H26.4167V18.75C26.3045 17.6495 26.4344 16.5378 26.7973 15.4928C27.1603 14.4478 27.7474 13.4949 28.5176 12.7008C29.2879 11.9068 30.2225 11.2909 31.2559 10.8963C32.2893 10.5017 33.3966 10.338 34.5 10.4167C36.1215 10.4067 37.7423 10.4901 39.3542 10.6667V16.2917H36.0417C33.4167 16.2917 32.9167 17.5417 32.9167 19.3542V23.375H39.1667L38.3542 29.625H32.9167V45.8333H43.5417C43.8426 45.8333 44.1406 45.7741 44.4187 45.6589C44.6967 45.5437 44.9493 45.3749 45.1621 45.1621C45.3749 44.9493 45.5437 44.6967 45.6589 44.4186C45.7741 44.1406 45.8333 43.8426 45.8333 43.5417V6.45832C45.8333 6.15738 45.7741 5.85938 45.6589 5.58134C45.5437 5.3033 45.3749 5.05067 45.1621 4.83787C44.9493 4.62507 44.6967 4.45627 44.4187 4.3411C44.1406 4.22593 43.8426 4.16666 43.5417 4.16666V4.16666Z" fill="white"/>
</svg>
