<svg width="1" height="1" viewBox="0 0 1 1" fill="none" xmlns="http://www.w3.org/2000/svg">
<path d="M0.870828 0.0833435H0.129162C0.117006 0.0833435 0.105348 0.0881724 0.0967525 0.0967678C0.0881571 0.105363 0.0833282 0.117021 0.0833282 0.129177V0.870844C0.0833282 0.876862 0.0845138 0.882822 0.0868171 0.888383C0.0891204 0.893944 0.0924965 0.898997 0.0967525 0.903253C0.101009 0.907509 0.106061 0.910885 0.111622 0.913188C0.117183 0.915491 0.123143 0.916677 0.129162 0.916677H0.528328V0.59376H0.419995V0.46876H0.528328V0.37501C0.526084 0.353 0.528683 0.330765 0.535941 0.309866C0.5432 0.288966 0.554943 0.269908 0.570348 0.254027C0.585752 0.238147 0.604444 0.225829 0.625113 0.217937C0.645782 0.210045 0.667927 0.206771 0.689995 0.208344C0.722425 0.208144 0.75484 0.209813 0.787078 0.213344V0.325844H0.720828C0.668328 0.325844 0.658328 0.350844 0.658328 0.387094V0.46751H0.783328L0.767078 0.59251H0.658328V0.916677H0.870828C0.876847 0.916677 0.882807 0.915491 0.888368 0.913188C0.893929 0.910885 0.898981 0.907509 0.903237 0.903253C0.907493 0.898997 0.910869 0.893944 0.913173 0.888383C0.915476 0.882822 0.916662 0.876862 0.916662 0.870844V0.129177C0.916662 0.123158 0.915476 0.117198 0.913173 0.111637C0.910869 0.106076 0.907493 0.101024 0.903237 0.0967678C0.898981 0.0925118 0.893929 0.0891357 0.888368 0.0868324C0.882807 0.084529 0.876847 0.0833435 0.870828 0.0833435V0.0833435Z" fill="white"/>
</svg>
