<svg width="1" height="1" viewBox="0 0 1 1" fill="none" xmlns="http://www.w3.org/2000/svg">
<path d="M0.291662 0.25001H0.249995V0.12501C0.249995 0.113959 0.245605 0.103361 0.237791 0.0955474C0.229977 0.0877334 0.219379 0.0833435 0.208328 0.0833435C0.197278 0.0833435 0.186679 0.0877334 0.178865 0.0955474C0.171051 0.103361 0.166662 0.113959 0.166662 0.12501V0.25001H0.124995C0.113944 0.25001 0.103346 0.2544 0.0955321 0.262214C0.0877181 0.270028 0.0833282 0.280626 0.0833282 0.291677C0.0833282 0.302728 0.0877181 0.313326 0.0955321 0.32114C0.103346 0.328954 0.113944 0.333344 0.124995 0.333344H0.291662C0.302712 0.333344 0.31331 0.328954 0.321124 0.32114C0.328938 0.313326 0.333328 0.302728 0.333328 0.291677C0.333328 0.280626 0.328938 0.270028 0.321124 0.262214C0.31331 0.2544 0.302712 0.25001 0.291662 0.25001ZM0.208328 0.416677C0.197278 0.416677 0.186679 0.421067 0.178865 0.428881C0.171051 0.436695 0.166662 0.447293 0.166662 0.458344V0.87501C0.166662 0.886061 0.171051 0.896659 0.178865 0.904473C0.186679 0.912287 0.197278 0.916677 0.208328 0.916677C0.219379 0.916677 0.229977 0.912287 0.237791 0.904473C0.245605 0.896659 0.249995 0.886061 0.249995 0.87501V0.458344C0.249995 0.447293 0.245605 0.436695 0.237791 0.428881C0.229977 0.421067 0.219379 0.416677 0.208328 0.416677ZM0.499995 0.75001C0.488944 0.75001 0.478346 0.7544 0.470532 0.762214C0.462718 0.770028 0.458328 0.780626 0.458328 0.791677V0.87501C0.458328 0.886061 0.462718 0.896659 0.470532 0.904473C0.478346 0.912287 0.488944 0.916677 0.499995 0.916677C0.511046 0.916677 0.521644 0.912287 0.529458 0.904473C0.537272 0.896659 0.541662 0.886061 0.541662 0.87501V0.791677C0.541662 0.780626 0.537272 0.770028 0.529458 0.762214C0.521644 0.7544 0.511046 0.75001 0.499995 0.75001ZM0.874995 0.416677H0.833328V0.12501C0.833328 0.113959 0.828938 0.103361 0.821124 0.0955474C0.81331 0.0877334 0.802712 0.0833435 0.791662 0.0833435C0.780611 0.0833435 0.770013 0.0877334 0.762199 0.0955474C0.754385 0.103361 0.749995 0.113959 0.749995 0.12501V0.416677H0.708328C0.697278 0.416677 0.686679 0.421067 0.678865 0.428881C0.671051 0.436695 0.666662 0.447293 0.666662 0.458344C0.666662 0.469394 0.671051 0.479992 0.678865 0.487806C0.686679 0.49562 0.697278 0.50001 0.708328 0.50001H0.874995C0.886046 0.50001 0.896644 0.49562 0.904458 0.487806C0.912272 0.479992 0.916662 0.469394 0.916662 0.458344C0.916662 0.447293 0.912272 0.436695 0.904458 0.428881C0.896644 0.421067 0.886046 0.416677 0.874995 0.416677ZM0.791662 0.583344C0.780611 0.583344 0.770013 0.587733 0.762199 0.595547C0.754385 0.603361 0.749995 0.61396 0.749995 0.62501V0.87501C0.749995 0.886061 0.754385 0.896659 0.762199 0.904473C0.770013 0.912287 0.780611 0.916677 0.791662 0.916677C0.802712 0.916677 0.81331 0.912287 0.821124 0.904473C0.828938 0.896659 0.833328 0.886061 0.833328 0.87501V0.62501C0.833328 0.61396 0.828938 0.603361 0.821124 0.595547C0.81331 0.587733 0.802712 0.583344 0.791662 0.583344ZM0.583328 0.583344H0.541662V0.12501C0.541662 0.113959 0.537272 0.103361 0.529458 0.0955474C0.521644 0.0877334 0.511046 0.0833435 0.499995 0.0833435C0.488944 0.0833435 0.478346 0.0877334 0.470532 0.0955474C0.462718 0.103361 0.458328 0.113959 0.458328 0.12501V0.583344H0.416662C0.405611 0.583344 0.395013 0.587733 0.387199 0.595547C0.379385 0.603361 0.374995 0.61396 0.374995 0.62501C0.374995 0.636061 0.379385 0.646659 0.387199 0.654473C0.395013 0.662287 0.405611 0.666677 0.416662 0.666677H0.583328C0.594379 0.666677 0.604977 0.662287 0.612791 0.654473C0.620605 0.646659 0.624995 0.636061 0.624995 0.62501C0.624995 0.61396 0.620605 0.603361 0.612791 0.595547C0.604977 0.587733 0.594379 0.583344 0.583328 0.583344Z" fill="white"/>
</svg>
