<svg width="50" height="50" viewBox="0 0 50 50" fill="none" xmlns="http://www.w3.org/2000/svg">
<path d="M14.5833 12.5H12.5V6.25C12.5 5.69746 12.2805 5.16756 11.8898 4.77686C11.4991 4.38616 10.9692 4.16666 10.4167 4.16666C9.86414 4.16666 9.33423 4.38616 8.94353 4.77686C8.55283 5.16756 8.33334 5.69746 8.33334 6.25V12.5H6.25001C5.69747 12.5 5.16757 12.7195 4.77687 13.1102C4.38617 13.5009 4.16667 14.0308 4.16667 14.5833C4.16667 15.1359 4.38617 15.6658 4.77687 16.0565C5.16757 16.4472 5.69747 16.6667 6.25001 16.6667H14.5833C15.1359 16.6667 15.6658 16.4472 16.0565 16.0565C16.4472 15.6658 16.6667 15.1359 16.6667 14.5833C16.6667 14.0308 16.4472 13.5009 16.0565 13.1102C15.6658 12.7195 15.1359 12.5 14.5833 12.5ZM10.4167 20.8333C9.86414 20.8333 9.33423 21.0528 8.94353 21.4435C8.55283 21.8342 8.33334 22.3641 8.33334 22.9167V43.75C8.33334 44.3025 8.55283 44.8324 8.94353 45.2231C9.33423 45.6138 9.86414 45.8333 10.4167 45.8333C10.9692 45.8333 11.4991 45.6138 11.8898 45.2231C12.2805 44.8324 12.5 44.3025 12.5 43.75V22.9167C12.5 22.3641 12.2805 21.8342 11.8898 21.4435C11.4991 21.0528 10.9692 20.8333 10.4167 20.8333ZM25 37.5C24.4475 37.5 23.9176 37.7195 23.5269 38.1102C23.1362 38.5009 22.9167 39.0308 22.9167 39.5833V43.75C22.9167 44.3025 23.1362 44.8324 23.5269 45.2231C23.9176 45.6138 24.4475 45.8333 25 45.8333C25.5525 45.8333 26.0824 45.6138 26.4731 45.2231C26.8638 44.8324 27.0833 44.3025 27.0833 43.75V39.5833C27.0833 39.0308 26.8638 38.5009 26.4731 38.1102C26.0824 37.7195 25.5525 37.5 25 37.5ZM43.75 20.8333H41.6667V6.25C41.6667 5.69746 41.4472 5.16756 41.0565 4.77686C40.6658 4.38616 40.1359 4.16666 39.5833 4.16666C39.0308 4.16666 38.5009 4.38616 38.1102 4.77686C37.7195 5.16756 37.5 5.69746 37.5 6.25V20.8333H35.4167C34.8641 20.8333 34.3342 21.0528 33.9435 21.4435C33.5528 21.8342 33.3333 22.3641 33.3333 22.9167C33.3333 23.4692 33.5528 23.9991 33.9435 24.3898C34.3342 24.7805 34.8641 25 35.4167 25H43.75C44.3025 25 44.8324 24.7805 45.2231 24.3898C45.6138 23.9991 45.8333 23.4692 45.8333 22.9167C45.8333 22.3641 45.6138 21.8342 45.2231 21.4435C44.8324 21.0528 44.3025 20.8333 43.75 20.8333ZM39.5833 29.1667C39.0308 29.1667 38.5009 29.3862 38.1102 29.7769C37.7195 30.1676 37.5 30.6975 37.5 31.25V43.75C37.5 44.3025 37.7195 44.8324 38.1102 45.2231C38.5009 45.6138 39.0308 45.8333 39.5833 45.8333C40.1359 45.8333 40.6658 45.6138 41.0565 45.2231C41.4472 44.8324 41.6667 44.3025 41.6667 43.75V31.25C41.6667 30.6975 41.4472 30.1676 41.0565 29.7769C40.6658 29.3862 40.1359 29.1667 39.5833 29.1667ZM29.1667 29.1667H27.0833V6.25C27.0833 5.69746 26.8638 5.16756 26.4731 4.77686C26.0824 4.38616 25.5525 4.16666 25 4.16666C24.4475 4.16666 23.9176 4.38616 23.5269 4.77686C23.1362 5.16756 22.9167 5.69746 22.9167 6.25V29.1667H20.8333C20.2808 29.1667 19.7509 29.3862 19.3602 29.7769C18.9695 30.1676 18.75 30.6975 18.75 31.25C18.75 31.8025 18.9695 32.3324 19.3602 32.7231C19.7509 33.1138 20.2808 33.3333 20.8333 33.3333H29.1667C29.7192 33.3333 30.2491 33.1138 30.6398 32.7231C31.0305 32.3324 31.25 31.8025 31.25 31.25C31.25 30.6975 31.0305 30.1676 30.6398 29.7769C30.2491 29.3862 29.7192 29.1667 29.1667 29.1667Z" fill="#373737"/>
</svg>
