<svg width="50" height="50" viewBox="0 0 50 50" fill="none" xmlns="http://www.w3.org/2000/svg">
<path d="M25 4.68063C20.0531 4.68084 15.2676 6.44129 11.4999 9.64698C7.73221 12.8527 5.22811 17.2944 4.43568 22.1775C3.64325 27.0605 4.61419 32.0662 7.17478 36.2989C9.73536 40.5315 13.7185 43.715 18.4115 45.2796C19.4532 45.4619 19.8438 44.8369 19.8438 44.29C19.8438 43.7952 19.8177 42.1546 19.8177 40.4098C14.5833 41.3733 13.2292 39.1338 12.8125 37.9619C12.3501 36.8222 11.6172 35.8122 10.6771 35.0192C9.9479 34.6285 8.90624 33.665 10.651 33.639C11.3172 33.7113 11.9562 33.9431 12.5138 34.3148C13.0714 34.6866 13.5312 35.1872 13.8542 35.7744C14.1391 36.2862 14.5222 36.7369 14.9816 37.1004C15.441 37.4639 15.9676 37.7333 16.5313 37.8929C17.095 38.0526 17.6846 38.0995 18.2664 38.0309C18.8482 37.9622 19.4108 37.7795 19.9218 37.4931C20.012 36.434 20.484 35.4437 21.25 34.7067C16.6146 34.1859 11.7708 32.3889 11.7708 24.4203C11.7415 22.3497 12.5056 20.3465 13.9062 18.8213C13.2693 17.0218 13.3438 15.0469 14.1146 13.3005C14.1146 13.3005 15.8593 12.7536 19.8437 15.4359C23.2527 14.4983 26.8515 14.4983 30.2604 15.4359C34.2447 12.7276 35.9896 13.3005 35.9896 13.3005C36.7604 15.0469 36.8349 17.0218 36.1979 18.8213C37.6028 20.3439 38.3675 22.3489 38.3333 24.4203C38.3333 32.415 33.4635 34.1859 28.8281 34.7067C29.3253 35.2107 29.7082 35.8157 29.9509 36.4807C30.1935 37.1457 30.2902 37.8552 30.2344 38.5609C30.2344 41.3474 30.2083 43.5869 30.2083 44.2901C30.2083 44.837 30.5989 45.488 31.6406 45.2797C36.3253 43.7023 40.297 40.5114 42.8467 36.2766C45.3964 32.0417 46.3581 27.0386 45.5601 22.1603C44.7622 17.282 42.2566 12.846 38.4905 9.6442C34.7245 6.4424 29.9431 4.68321 25 4.68063V4.68063Z" fill="white"/>
</svg>
