<svg width="1" height="1" viewBox="0 0 1 1" fill="none" xmlns="http://www.w3.org/2000/svg">
<path d="M0.500011 0.0935974C0.401073 0.0936015 0.305364 0.12881 0.23001 0.192924C0.154656 0.257038 0.104574 0.345873 0.0887252 0.443534C0.0728765 0.541195 0.0922954 0.641309 0.143507 0.725962C0.194719 0.810615 0.274381 0.874284 0.368241 0.905576C0.389074 0.909223 0.396887 0.896723 0.396887 0.885784C0.396887 0.875889 0.396366 0.843076 0.396366 0.80818C0.291678 0.827451 0.264595 0.782661 0.256261 0.759223C0.247014 0.736429 0.232356 0.716228 0.213553 0.700368C0.19897 0.692556 0.178136 0.673285 0.213032 0.672765C0.226356 0.674211 0.239136 0.678847 0.250287 0.686281C0.261439 0.693716 0.270635 0.703729 0.277095 0.715472C0.282793 0.725709 0.290456 0.734722 0.299644 0.741992C0.308832 0.749263 0.319364 0.75465 0.330637 0.757843C0.341911 0.761036 0.353703 0.761974 0.365339 0.760602C0.376976 0.759229 0.388227 0.755575 0.398448 0.749847C0.400252 0.728664 0.409692 0.708859 0.425011 0.694119C0.332303 0.683703 0.235428 0.647763 0.235428 0.48839C0.234842 0.44698 0.250123 0.406914 0.278136 0.376411C0.265398 0.34042 0.266888 0.300923 0.282303 0.265994C0.282303 0.265994 0.317197 0.255057 0.396886 0.308703C0.465065 0.289952 0.537041 0.289952 0.605219 0.308703C0.684906 0.254536 0.719803 0.265994 0.719803 0.265994C0.735219 0.300922 0.73671 0.340421 0.723969 0.376411C0.752067 0.406862 0.767361 0.446962 0.766677 0.48839C0.766677 0.648285 0.669281 0.683703 0.576573 0.694119C0.586517 0.704198 0.594176 0.716298 0.599029 0.729599C0.603881 0.742899 0.605815 0.757088 0.604698 0.771203C0.604698 0.826933 0.604177 0.871723 0.604177 0.885786C0.604177 0.896724 0.61199 0.909744 0.632823 0.905578C0.726517 0.87403 0.805951 0.810212 0.856945 0.725516C0.907938 0.640819 0.927173 0.540757 0.911214 0.44319C0.895256 0.345624 0.845143 0.256905 0.769822 0.192869C0.694501 0.128833 0.598874 0.0936489 0.500011 0.0935974V0.0935974Z" fill="white"/>
</svg>
