<svg width="1" height="1" viewBox="0 0 1 1" fill="none" xmlns="http://www.w3.org/2000/svg">
<path d="M0.94175 0.416841C0.940014 0.407232 0.934959 0.398538 0.927466 0.392276C0.919973 0.386014 0.91052 0.382582 0.900755 0.38258H0.508322C0.502849 0.382579 0.497431 0.383655 0.492375 0.385749C0.487319 0.387842 0.482725 0.390911 0.478856 0.394781C0.474986 0.39865 0.471917 0.403244 0.469824 0.4083C0.46773 0.413356 0.466653 0.418775 0.466655 0.424247V0.58542C0.466653 0.590892 0.46773 0.596311 0.469824 0.601367C0.471917 0.606423 0.474986 0.611016 0.478856 0.614886C0.482725 0.618755 0.487319 0.621824 0.492375 0.623918C0.497431 0.626011 0.502849 0.627088 0.508322 0.627087H0.673421C0.661658 0.646943 0.645531 0.663863 0.626262 0.676566C0.591048 0.698892 0.550005 0.710277 0.508322 0.709281C0.465091 0.708786 0.423117 0.694679 0.388363 0.668964C0.353609 0.643249 0.327843 0.607235 0.314728 0.566039L0.314716 0.56597C0.300122 0.523194 0.300122 0.476787 0.314716 0.434012L0.314726 0.433943C0.32785 0.392756 0.35362 0.356751 0.388373 0.331045C0.423126 0.305338 0.465097 0.291236 0.508322 0.290743C0.532339 0.290191 0.556228 0.29439 0.578619 0.303098C0.601009 0.311805 0.621458 0.32485 0.638792 0.341483C0.646665 0.349006 0.65717 0.35315 0.668059 0.353029C0.678948 0.352907 0.689357 0.34853 0.697061 0.340832L0.816567 0.221325C0.820526 0.217371 0.823648 0.21266 0.825745 0.207472C0.827843 0.202284 0.828873 0.196727 0.828774 0.191132C0.828675 0.185538 0.82745 0.18002 0.825171 0.17491C0.822891 0.169799 0.819606 0.165201 0.815509 0.161389C0.732348 0.0834183 0.622312 0.0405375 0.508322 0.0416787C0.423319 0.0414272 0.339937 0.0649292 0.267577 0.109534C0.195218 0.15414 0.13676 0.218074 0.0987945 0.294128L0.0987332 0.294201C0.0665469 0.358025 0.0498477 0.428532 0.0499887 0.500012C0.0500901 0.571463 0.0667769 0.641916 0.0987353 0.705822L0.0987965 0.705896C0.136761 0.781949 0.195219 0.845883 0.267578 0.890488C0.339937 0.935094 0.423319 0.958596 0.508322 0.958345C0.620211 0.961177 0.72895 0.921123 0.812266 0.846386L0.812297 0.846366L0.81233 0.846331L0.812337 0.846325L0.81234 0.84632C0.8575 0.802876 0.893074 0.750468 0.91678 0.692461C0.940486 0.634454 0.951799 0.572131 0.949992 0.509493C0.95001 0.478425 0.947252 0.447418 0.94175 0.416841ZM0.508322 0.125012C0.586283 0.124253 0.662403 0.148701 0.725342 0.194714L0.664773 0.255262C0.618847 0.223472 0.564172 0.20675 0.508322 0.207409C0.457331 0.207672 0.407331 0.221517 0.363469 0.247521C0.319606 0.273525 0.283466 0.310748 0.258767 0.355358L0.214217 0.320828L0.189842 0.301925C0.223374 0.247668 0.270258 0.202916 0.326015 0.171944C0.381772 0.140971 0.44454 0.124813 0.508322 0.125012V0.125012ZM0.153299 0.620983C0.12666 0.542535 0.12666 0.457488 0.153299 0.37904L0.227558 0.436617C0.218064 0.478333 0.218064 0.52165 0.227558 0.563367L0.153299 0.620983ZM0.508322 0.875011C0.444539 0.87521 0.38177 0.85905 0.326013 0.828076C0.270255 0.797102 0.223371 0.752349 0.189839 0.698091L0.205606 0.685861L0.258767 0.644624C0.283455 0.689247 0.319592 0.726482 0.363456 0.752494C0.40732 0.778506 0.457325 0.792355 0.508322 0.792614C0.556057 0.793175 0.60325 0.782457 0.64606 0.761331L0.716546 0.816053C0.654554 0.855995 0.582051 0.876524 0.508322 0.875011V0.875011ZM0.780233 0.759981L0.772608 0.754064L0.715218 0.709511C0.74531 0.677 0.765536 0.636602 0.773538 0.593031C0.774656 0.587017 0.774436 0.58083 0.772894 0.57491C0.771351 0.56899 0.768524 0.563482 0.764613 0.558779C0.760701 0.554075 0.755802 0.55029 0.750263 0.547694C0.744723 0.545097 0.73868 0.543753 0.732563 0.543755H0.549988V0.465913H0.864522C0.865947 0.480317 0.866659 0.494885 0.866659 0.509492C0.869095 0.600694 0.838389 0.689687 0.780231 0.759981H0.780233Z" fill="white"/>
</svg>
