<svg width="50" height="50" viewBox="0 0 50 50" fill="none" xmlns="http://www.w3.org/2000/svg">
<path d="M47.0881 20.8415C47.0013 20.361 46.7485 19.9263 46.3739 19.6132C45.9993 19.3001 45.5266 19.1285 45.0383 19.1284H25.4167C25.143 19.1283 24.8721 19.1822 24.6193 19.2868C24.3665 19.3915 24.1368 19.545 23.9434 19.7384C23.7499 19.9319 23.5964 20.1616 23.4918 20.4144C23.3871 20.6672 23.3332 20.9381 23.3333 21.2117V29.2704C23.3332 29.544 23.3871 29.815 23.4918 30.0678C23.5964 30.3205 23.7499 30.5502 23.9434 30.7437C24.1368 30.9372 24.3665 31.0906 24.6193 31.1953C24.8721 31.3 25.143 31.3538 25.4167 31.3537H33.6717C33.0835 32.3466 32.2771 33.1926 31.3137 33.8277C29.553 34.944 27.5008 35.5133 25.4167 35.4635C23.2551 35.4387 21.1564 34.7334 19.4187 33.4476C17.681 32.1619 16.3927 30.3612 15.737 28.3014L15.7364 28.2979C15.0067 26.1591 15.0067 23.8388 15.7364 21.7L15.7369 21.6966C16.3931 19.6372 17.6815 17.837 19.4192 16.5516C21.1569 15.2663 23.2554 14.5612 25.4167 14.5365C26.6175 14.509 27.812 14.7189 28.9315 15.1543C30.051 15.5897 31.0735 16.2419 31.9402 17.0736C32.3339 17.4497 32.8591 17.6569 33.4035 17.6508C33.948 17.6448 34.4685 17.4259 34.8536 17.041L40.8289 11.0657C41.0269 10.868 41.183 10.6324 41.2879 10.373C41.3927 10.1136 41.4442 9.83575 41.4393 9.55601C41.4344 9.27628 41.3731 9.00041 41.2591 8.74489C41.1452 8.48937 40.9809 8.25944 40.776 8.06885C36.618 4.17031 31.1162 2.02626 25.4167 2.08332C21.1665 2.07075 16.9974 3.24585 13.3794 5.47611C9.76145 7.70638 6.83853 10.9031 4.94028 14.7058L4.93721 14.7095C3.32789 17.9006 2.49294 21.426 2.49998 25C2.50505 28.5726 3.3394 32.0952 4.93732 35.2905L4.94038 35.2942C6.83863 39.0969 9.76153 42.2936 13.3795 44.5238C16.9974 46.7541 21.1665 47.9292 25.4167 47.9167C31.0111 48.0583 36.4481 46.0556 40.6139 42.3187L40.6154 42.3177L40.6171 42.316L40.6175 42.3157L40.6176 42.3154C42.8756 40.1432 44.6543 37.5228 45.8396 34.6225C47.0249 31.7221 47.5905 28.606 47.5002 25.4741C47.5011 23.9207 47.3632 22.3703 47.0881 20.8415ZM25.4167 6.24999C29.3147 6.21205 33.1207 7.43446 36.2677 9.7351L33.2392 12.7625C30.9429 11.173 28.2092 10.3369 25.4167 10.3699C22.8671 10.383 20.3671 11.0753 18.174 12.3755C15.9809 13.6757 14.1739 15.5368 12.9389 17.7673L10.7114 16.0408L9.49265 15.0956C11.1693 12.3828 13.5135 10.1452 16.3013 8.59657C19.0892 7.04794 22.2276 6.24002 25.4167 6.24999V6.24999ZM7.66548 31.0486C6.33357 27.1262 6.33357 22.8738 7.66548 18.9514L11.3785 21.8302C10.9037 23.9161 10.9037 26.0819 11.3785 28.1677L7.66548 31.0486ZM25.4167 43.75C22.2275 43.7599 19.0891 42.9519 16.3012 41.4032C13.5133 39.8545 11.1691 37.6169 9.49248 34.904L10.2808 34.2925L12.9389 32.2306C14.1733 34.4618 15.9802 36.3235 18.1734 37.6241C20.3666 38.9247 22.8668 39.6172 25.4167 39.6301C27.8034 39.6582 30.1631 39.1223 32.3036 38.066L35.8279 40.8021C32.7283 42.7992 29.1031 43.8256 25.4167 43.75V43.75ZM39.0122 37.9985L38.631 37.7026L35.7615 35.475C37.2661 33.8494 38.2774 31.8295 38.6775 29.651C38.7334 29.3502 38.7224 29.0409 38.6453 28.7449C38.5682 28.4489 38.4268 28.1735 38.2312 27.9383C38.0356 27.7031 37.7907 27.5139 37.5137 27.3841C37.2368 27.2543 36.9346 27.187 36.6287 27.1872H27.5V23.2951H43.2267C43.2979 24.0153 43.3335 24.7436 43.3335 25.474C43.4553 30.0341 41.92 34.4837 39.0121 37.9985H39.0122Z" fill="white"/>
</svg>
