<svg width="1" height="1" viewBox="0 0 1 1" fill="none" xmlns="http://www.w3.org/2000/svg">
<path d="M0.892096 0.360414C0.892096 0.360414 0.892096 0.360414 0.892096 0.357914C0.862994 0.277662 0.809946 0.208285 0.740126 0.159168C0.670306 0.110051 0.587084 0.083565 0.501719 0.0832922C0.416354 0.0830195 0.332965 0.108973 0.262833 0.157643C0.1927 0.206313 0.139209 0.27535 0.109596 0.355414C0.107992 0.358562 0.106869 0.361933 0.106263 0.365414C0.0911789 0.408685 0.0834333 0.454173 0.0833459 0.499997C0.0831396 0.560832 0.0962571 0.620974 0.121777 0.676197C0.147296 0.731421 0.184599 0.780386 0.231064 0.819654C0.277529 0.858921 0.332029 0.887537 0.390734 0.903492C0.44944 0.919446 0.510927 0.922353 0.570875 0.912006C0.630824 0.901659 0.68778 0.878311 0.737741 0.843601C0.787702 0.808892 0.829457 0.763663 0.860072 0.711092C0.890686 0.658522 0.909417 0.599885 0.91495 0.539302C0.920482 0.47872 0.912682 0.41766 0.892096 0.360414V0.360414ZM0.500012 0.166664C0.558467 0.166724 0.615877 0.182155 0.666485 0.211408C0.717093 0.240661 0.759119 0.282708 0.788346 0.333331H0.738346C0.725956 0.319711 0.71071 0.308997 0.693698 0.301954C0.676686 0.294911 0.658329 0.291713 0.639937 0.292589C0.621546 0.293465 0.603576 0.298393 0.58731 0.30702C0.571044 0.315648 0.556886 0.327762 0.545846 0.342497C0.531234 0.336741 0.515714 0.333637 0.500012 0.333331C0.484311 0.333637 0.46879 0.336741 0.454179 0.342497C0.443139 0.327762 0.42898 0.315648 0.412715 0.30702C0.396449 0.298393 0.378479 0.293465 0.360087 0.292589C0.341696 0.291713 0.323339 0.294911 0.306327 0.301954C0.289315 0.308997 0.274069 0.319711 0.261679 0.333331H0.211679C0.240906 0.282708 0.282932 0.240661 0.33354 0.211408C0.384147 0.182155 0.441558 0.166724 0.500012 0.166664V0.166664ZM0.687512 0.416664C0.687512 0.424905 0.685069 0.432961 0.68049 0.439813C0.675912 0.446665 0.669404 0.452005 0.661791 0.455159C0.654177 0.458313 0.645799 0.459138 0.637717 0.45753C0.629634 0.455922 0.62221 0.451954 0.616383 0.446127C0.610556 0.4403 0.606587 0.432875 0.60498 0.424793C0.603372 0.41671 0.604197 0.408332 0.607351 0.400719C0.610504 0.393105 0.615845 0.386598 0.622697 0.382019C0.629549 0.377441 0.637605 0.374997 0.645846 0.374997C0.656896 0.374997 0.667494 0.379387 0.675309 0.387201C0.683123 0.395015 0.687512 0.405613 0.687512 0.416664ZM0.395846 0.416664C0.395846 0.424905 0.393402 0.432961 0.388824 0.439813C0.384245 0.446665 0.377738 0.452005 0.370124 0.455159C0.362511 0.458313 0.354133 0.459138 0.34605 0.45753C0.337968 0.455922 0.330544 0.451954 0.324716 0.446127C0.318889 0.4403 0.314921 0.432875 0.313313 0.424793C0.311705 0.41671 0.312531 0.408332 0.315684 0.400719C0.318838 0.393105 0.324178 0.386598 0.33103 0.382019C0.337882 0.377441 0.345938 0.374997 0.354179 0.374997C0.36523 0.374997 0.375828 0.379387 0.383642 0.387201C0.391456 0.395015 0.395846 0.405613 0.395846 0.416664ZM0.500012 0.83333C0.411607 0.83333 0.326822 0.798211 0.26431 0.735699C0.201798 0.673187 0.166679 0.588403 0.166679 0.499997C0.166864 0.471881 0.170503 0.443893 0.177513 0.416664H0.229179C0.228185 0.449816 0.2404 0.482005 0.263139 0.506151C0.285878 0.530296 0.317277 0.544419 0.350429 0.545414C0.383581 0.546408 0.415771 0.534193 0.439916 0.511454C0.464061 0.488715 0.478185 0.457316 0.479179 0.424164C0.485513 0.420507 0.492698 0.418582 0.500012 0.418582C0.507326 0.418582 0.514512 0.420507 0.520846 0.424164C0.52184 0.457316 0.535964 0.488715 0.560109 0.511454C0.584254 0.534193 0.616444 0.546408 0.649596 0.545414C0.682748 0.544419 0.714147 0.530296 0.736886 0.506151C0.759624 0.482005 0.77184 0.449816 0.770846 0.416664H0.822512C0.829522 0.443893 0.83316 0.471881 0.833346 0.499997C0.833346 0.588403 0.798227 0.673187 0.735715 0.735699C0.673203 0.798211 0.588418 0.83333 0.500012 0.83333V0.83333ZM0.598346 0.592914C0.570492 0.615371 0.535791 0.627617 0.500012 0.627617C0.464234 0.627617 0.429533 0.615371 0.401679 0.592914C0.39317 0.585841 0.3822 0.582439 0.371182 0.583455C0.360165 0.58447 0.350002 0.589821 0.342929 0.598331C0.335857 0.60684 0.332454 0.61781 0.33347 0.628827C0.334486 0.639845 0.339837 0.650008 0.348346 0.657081C0.390902 0.692606 0.444578 0.712065 0.500012 0.712065C0.555447 0.712065 0.609123 0.692606 0.651679 0.657081C0.660188 0.650008 0.665539 0.639845 0.666555 0.628827C0.667571 0.61781 0.664168 0.60684 0.657096 0.598331C0.653594 0.594117 0.649296 0.590635 0.644449 0.588083C0.639601 0.58553 0.634298 0.583958 0.628843 0.583455C0.617825 0.582439 0.606855 0.585841 0.598346 0.592914V0.592914Z" fill="#373737"/>
</svg>
