<svg width="50" height="50" viewBox="0 0 50 50" fill="none" xmlns="http://www.w3.org/2000/svg">
<path d="M44.6042 18.0208C44.6042 18.0208 44.6042 18.0208 44.6042 17.8958C43.1491 13.8832 40.4967 10.4144 37.0057 7.95854C33.5147 5.50269 29.3536 4.17838 25.0853 4.16474C20.8171 4.1511 16.6476 5.4488 13.141 7.88229C9.63438 10.3158 6.95983 13.7676 5.47915 17.7708C5.39897 17.9283 5.34279 18.0968 5.31249 18.2708C4.5583 20.4344 4.17102 22.7088 4.16665 25C4.15634 28.0417 4.81222 31.0488 6.0882 33.81C7.36418 36.5712 9.22932 39.0195 11.5526 40.9828C13.8758 42.9462 16.6008 44.377 19.5361 45.1747C22.4713 45.9725 25.5457 46.1178 28.5431 45.6005C31.5406 45.0831 34.3884 43.9157 36.8864 42.1802C39.3845 40.4447 41.4722 38.1833 43.003 35.5548C44.5337 32.9262 45.4703 29.9944 45.7469 26.9653C46.0235 23.9361 45.6335 20.8831 44.6042 18.0208V18.0208ZM25 8.33334C27.9227 8.33634 30.7932 9.10786 33.3236 10.5705C35.854 12.0332 37.9553 14.1355 39.4167 16.6667H36.9167C36.2971 15.9857 35.5349 15.45 34.6843 15.0978C33.8337 14.7457 32.9158 14.5858 31.9962 14.6296C31.0767 14.6734 30.1781 14.9198 29.3649 15.3511C28.5516 15.7825 27.8437 16.3882 27.2917 17.125C26.5611 16.8372 25.7851 16.682 25 16.6667C24.2149 16.682 23.4389 16.8372 22.7083 17.125C22.1563 16.3882 21.4484 15.7825 20.6351 15.3511C19.8218 14.9198 18.9233 14.6734 18.0037 14.6296C17.0842 14.5858 16.1663 14.7457 15.3157 15.0978C14.4651 15.45 13.7028 15.9857 13.0833 16.6667H10.5833C12.0447 14.1355 14.146 12.0332 16.6763 10.5705C19.2067 9.10786 22.0773 8.33634 25 8.33334V8.33334ZM34.375 20.8333C34.375 21.2454 34.2528 21.6482 34.0239 21.9908C33.795 22.3334 33.4696 22.6004 33.0889 22.7581C32.7082 22.9158 32.2893 22.957 31.8852 22.8766C31.4811 22.7963 31.1099 22.5978 30.8185 22.3065C30.5272 22.0151 30.3287 21.6439 30.2484 21.2398C30.168 20.8356 30.2092 20.4168 30.3669 20.0361C30.5246 19.6554 30.7916 19.33 31.1342 19.1011C31.4768 18.8722 31.8796 18.75 32.2917 18.75C32.8442 18.75 33.3741 18.9695 33.7648 19.3602C34.1555 19.7509 34.375 20.2808 34.375 20.8333ZM19.7917 20.8333C19.7917 21.2454 19.6695 21.6482 19.4406 21.9908C19.2116 22.3334 18.8863 22.6004 18.5056 22.7581C18.1249 22.9158 17.706 22.957 17.3019 22.8766C16.8978 22.7963 16.5265 22.5978 16.2352 22.3065C15.9438 22.0151 15.7454 21.6439 15.665 21.2398C15.5846 20.8356 15.6259 20.4168 15.7836 20.0361C15.9413 19.6554 16.2083 19.33 16.5509 19.1011C16.8935 18.8722 17.2963 18.75 17.7083 18.75C18.2609 18.75 18.7908 18.9695 19.1815 19.3602C19.5722 19.7509 19.7917 20.2808 19.7917 20.8333ZM25 41.6667C20.5797 41.6667 16.3405 39.9107 13.2149 36.7851C10.0893 33.6595 8.33332 29.4203 8.33332 25C8.34258 23.5942 8.5245 22.1948 8.87499 20.8333H11.4583C11.4086 22.4909 12.0194 24.1004 13.1563 25.3077C14.2933 26.5149 15.8632 27.2211 17.5208 27.2708C19.1784 27.3206 20.7879 26.7098 21.9952 25.5728C23.2024 24.4359 23.9086 22.8659 23.9583 21.2083C24.275 21.0255 24.6343 20.9292 25 20.9292C25.3657 20.9292 25.7249 21.0255 26.0417 21.2083C26.0914 22.8659 26.7976 24.4359 28.0048 25.5728C29.2121 26.7098 30.8216 27.3206 32.4792 27.2708C34.1368 27.2211 35.7067 26.5149 36.8437 25.3077C37.9806 24.1004 38.5914 22.4909 38.5417 20.8333H41.125C41.4755 22.1948 41.6574 23.5942 41.6667 25C41.6667 29.4203 39.9107 33.6595 36.7851 36.7851C33.6595 39.9107 29.4203 41.6667 25 41.6667V41.6667ZM29.9167 29.6458C28.524 30.7687 26.7889 31.381 25 31.381C23.211 31.381 21.476 30.7687 20.0833 29.6458C19.6579 29.2922 19.1094 29.1221 18.5585 29.1729C18.0076 29.2237 17.4994 29.4912 17.1458 29.9167C16.7922 30.3421 16.6221 30.8906 16.6729 31.4415C16.7237 31.9924 16.9912 32.5006 17.4167 32.8542C19.5444 34.6304 22.2282 35.6034 25 35.6034C27.7717 35.6034 30.4555 34.6304 32.5833 32.8542C33.0088 32.5006 33.2763 31.9924 33.3271 31.4415C33.3779 30.8906 33.2078 30.3421 32.8542 29.9167C32.6791 29.706 32.4642 29.5319 32.2218 29.4043C31.9794 29.2767 31.7143 29.198 31.4415 29.1729C30.8906 29.1221 30.3421 29.2922 29.9167 29.6458V29.6458Z" fill="#373737"/>
</svg>
