<svg width="1" height="1" viewBox="0 0 1 1" fill="none" xmlns="http://www.w3.org/2000/svg">
<path d="M0.49999 0.541669C0.488939 0.541669 0.478341 0.546059 0.470527 0.553873C0.462713 0.561687 0.458323 0.572285 0.458323 0.583336V0.708336C0.458323 0.719387 0.462713 0.729985 0.470527 0.737799C0.478341 0.745613 0.488939 0.750003 0.49999 0.750003C0.51104 0.750003 0.521639 0.745613 0.529453 0.737799C0.537267 0.729985 0.541656 0.719387 0.541656 0.708336V0.583336C0.541656 0.572285 0.537267 0.561687 0.529453 0.553873C0.521639 0.546059 0.51104 0.541669 0.49999 0.541669ZM0.708323 0.375003V0.291669C0.708323 0.236416 0.686374 0.183425 0.647304 0.144355C0.608234 0.105285 0.555243 0.0833359 0.49999 0.0833359C0.444736 0.0833359 0.391746 0.105285 0.352676 0.144355C0.313606 0.183425 0.291656 0.236416 0.291656 0.291669V0.375003C0.258504 0.375003 0.22671 0.388172 0.203268 0.411614C0.179826 0.435056 0.166656 0.46685 0.166656 0.500003V0.791669C0.166656 0.824821 0.179826 0.856616 0.203268 0.880058C0.22671 0.9035 0.258504 0.916669 0.291656 0.916669H0.708323C0.741475 0.916669 0.773269 0.9035 0.796711 0.880058C0.820154 0.856616 0.833323 0.824821 0.833323 0.791669V0.500003C0.833323 0.46685 0.820154 0.435056 0.796711 0.411614C0.773269 0.388172 0.741475 0.375003 0.708323 0.375003ZM0.37499 0.291669C0.37499 0.258517 0.388159 0.226723 0.411601 0.203281C0.435043 0.179839 0.466838 0.166669 0.49999 0.166669C0.533142 0.166669 0.564936 0.179839 0.588378 0.203281C0.61182 0.226723 0.62499 0.258517 0.62499 0.291669V0.375003H0.37499V0.291669ZM0.74999 0.791669C0.74999 0.80272 0.7456 0.813318 0.737786 0.821132C0.729972 0.828946 0.719374 0.833336 0.708323 0.833336H0.291656C0.280606 0.833336 0.270008 0.828946 0.262194 0.821132C0.25438 0.813318 0.24999 0.80272 0.24999 0.791669V0.500003C0.24999 0.488952 0.25438 0.478354 0.262194 0.47054C0.270008 0.462726 0.280606 0.458336 0.291656 0.458336H0.708323C0.719374 0.458336 0.729972 0.462726 0.737786 0.47054C0.7456 0.478354 0.74999 0.488952 0.74999 0.500003V0.791669Z" fill="#373737"/>
</svg>
