<svg width="50" height="50" viewBox="0 0 50 50" fill="none" xmlns="http://www.w3.org/2000/svg">
<path d="M25 27.0833C24.4475 27.0833 23.9176 27.3028 23.5269 27.6935C23.1362 28.0842 22.9167 28.6141 22.9167 29.1667V35.4167C22.9167 35.9692 23.1362 36.4991 23.5269 36.8898C23.9176 37.2805 24.4475 37.5 25 37.5C25.5525 37.5 26.0824 37.2805 26.4731 36.8898C26.8638 36.4991 27.0833 35.9692 27.0833 35.4167V29.1667C27.0833 28.6141 26.8638 28.0842 26.4731 27.6935C26.0824 27.3028 25.5525 27.0833 25 27.0833ZM35.4167 18.75V14.5833C35.4167 11.8207 34.3192 9.17113 32.3657 7.21763C30.4122 5.26412 27.7627 4.16666 25 4.16666C22.2373 4.16666 19.5878 5.26412 17.6343 7.21763C15.6808 9.17113 14.5833 11.8207 14.5833 14.5833V18.75C12.9257 18.75 11.336 19.4085 10.1639 20.5806C8.99182 21.7527 8.33334 23.3424 8.33334 25V39.5833C8.33334 41.2409 8.99182 42.8306 10.1639 44.0027C11.336 45.1748 12.9257 45.8333 14.5833 45.8333H35.4167C37.0743 45.8333 38.664 45.1748 39.8361 44.0027C41.0082 42.8306 41.6667 41.2409 41.6667 39.5833V25C41.6667 23.3424 41.0082 21.7527 39.8361 20.5806C38.664 19.4085 37.0743 18.75 35.4167 18.75ZM18.75 14.5833C18.75 12.9257 19.4085 11.336 20.5806 10.1639C21.7527 8.9918 23.3424 8.33332 25 8.33332C26.6576 8.33332 28.2473 8.9918 29.4194 10.1639C30.5915 11.336 31.25 12.9257 31.25 14.5833V18.75H18.75V14.5833ZM37.5 39.5833C37.5 40.1359 37.2805 40.6658 36.8898 41.0565C36.4991 41.4472 35.9692 41.6667 35.4167 41.6667H14.5833C14.0308 41.6667 13.5009 41.4472 13.1102 41.0565C12.7195 40.6658 12.5 40.1359 12.5 39.5833V25C12.5 24.4475 12.7195 23.9176 13.1102 23.5269C13.5009 23.1362 14.0308 22.9167 14.5833 22.9167H35.4167C35.9692 22.9167 36.4991 23.1362 36.8898 23.5269C37.2805 23.9176 37.5 24.4475 37.5 25V39.5833Z" fill="white"/>
</svg>
