<svg width="50" height="50" viewBox="0 0 50 50" fill="none" xmlns="http://www.w3.org/2000/svg">
<path d="M8.33334 25C8.33334 25.5525 8.55284 26.0824 8.94354 26.4731C9.33424 26.8638 9.86414 27.0833 10.4167 27.0833H26.2292L21.4375 31.8542C21.2422 32.0478 21.0873 32.2783 20.9815 32.5321C20.8757 32.786 20.8213 33.0583 20.8213 33.3333C20.8213 33.6084 20.8757 33.8807 20.9815 34.1345C21.0873 34.3884 21.2422 34.6188 21.4375 34.8125C21.6312 35.0078 21.8616 35.1628 22.1155 35.2685C22.3693 35.3743 22.6416 35.4287 22.9167 35.4287C23.1917 35.4287 23.464 35.3743 23.7179 35.2685C23.9717 35.1628 24.2022 35.0078 24.3958 34.8125L32.7292 26.4792C32.9188 26.281 33.0675 26.0474 33.1667 25.7917C33.375 25.2845 33.375 24.7155 33.1667 24.2083C33.0675 23.9526 32.9188 23.719 32.7292 23.5208L24.3958 15.1875C24.2016 14.9933 23.971 14.8392 23.7172 14.734C23.4634 14.6289 23.1914 14.5748 22.9167 14.5748C22.642 14.5748 22.37 14.6289 22.1162 14.734C21.8624 14.8392 21.6318 14.9933 21.4375 15.1875C21.2433 15.3817 21.0892 15.6124 20.984 15.8661C20.8789 16.1199 20.8248 16.392 20.8248 16.6667C20.8248 16.9414 20.8789 17.2134 20.984 17.4672C21.0892 17.721 21.2433 17.9516 21.4375 18.1458L26.2292 22.9167H10.4167C9.86414 22.9167 9.33424 23.1362 8.94354 23.5269C8.55284 23.9176 8.33334 24.4475 8.33334 25V25ZM35.4167 4.16667H14.5833C12.9257 4.16667 11.336 4.82515 10.1639 5.99725C8.99182 7.16935 8.33334 8.75906 8.33334 10.4167V16.6667C8.33334 17.2192 8.55284 17.7491 8.94354 18.1398C9.33424 18.5305 9.86414 18.75 10.4167 18.75C10.9692 18.75 11.4991 18.5305 11.8898 18.1398C12.2805 17.7491 12.5 17.2192 12.5 16.6667V10.4167C12.5 9.86413 12.7195 9.33423 13.1102 8.94353C13.5009 8.55283 14.0308 8.33333 14.5833 8.33333H35.4167C35.9692 8.33333 36.4991 8.55283 36.8898 8.94353C37.2805 9.33423 37.5 9.86413 37.5 10.4167V39.5833C37.5 40.1359 37.2805 40.6658 36.8898 41.0565C36.4991 41.4472 35.9692 41.6667 35.4167 41.6667H14.5833C14.0308 41.6667 13.5009 41.4472 13.1102 41.0565C12.7195 40.6658 12.5 40.1359 12.5 39.5833V33.3333C12.5 32.7808 12.2805 32.2509 11.8898 31.8602C11.4991 31.4695 10.9692 31.25 10.4167 31.25C9.86414 31.25 9.33424 31.4695 8.94354 31.8602C8.55284 32.2509 8.33334 32.7808 8.33334 33.3333V39.5833C8.33334 41.2409 8.99182 42.8307 10.1639 44.0028C11.336 45.1749 12.9257 45.8333 14.5833 45.8333H35.4167C37.0743 45.8333 38.664 45.1749 39.8361 44.0028C41.0082 42.8307 41.6667 41.2409 41.6667 39.5833V10.4167C41.6667 8.75906 41.0082 7.16935 39.8361 5.99725C38.664 4.82515 37.0743 4.16667 35.4167 4.16667Z" fill="#373737"/>
</svg>
