<svg width="1" height="1" viewBox="0 0 1 1" fill="none" xmlns="http://www.w3.org/2000/svg">
<path d="M0.166656 0.5C0.166656 0.511051 0.171046 0.521649 0.17886 0.529463C0.186674 0.537277 0.197272 0.541667 0.208323 0.541667H0.524573L0.42874 0.637083C0.424834 0.640957 0.421735 0.645565 0.419619 0.650643C0.417504 0.65572 0.416415 0.661166 0.416415 0.666667C0.416415 0.672167 0.417504 0.677613 0.419619 0.682691C0.421735 0.687768 0.424834 0.692376 0.42874 0.69625C0.432613 0.700155 0.437222 0.703255 0.442299 0.70537C0.447377 0.707486 0.452823 0.708575 0.458323 0.708575C0.463824 0.708575 0.46927 0.707486 0.474347 0.70537C0.479425 0.703255 0.484033 0.700155 0.487906 0.69625L0.654573 0.529583C0.658366 0.525621 0.66134 0.520948 0.663323 0.515833C0.667491 0.505689 0.667491 0.494311 0.663323 0.484167C0.66134 0.479052 0.658366 0.474379 0.654573 0.470417L0.487906 0.30375C0.484022 0.299865 0.479409 0.296783 0.474334 0.294681C0.469258 0.292578 0.463817 0.291496 0.458323 0.291496C0.452829 0.291496 0.447389 0.292578 0.442313 0.294681C0.437237 0.296783 0.432625 0.299865 0.42874 0.30375C0.424855 0.307635 0.421773 0.312247 0.419671 0.317323C0.417568 0.322399 0.416486 0.327839 0.416486 0.333333C0.416486 0.338827 0.417568 0.344268 0.419671 0.349344C0.421773 0.35442 0.424855 0.359032 0.42874 0.362917L0.524573 0.458333H0.208323C0.197272 0.458333 0.186674 0.462723 0.17886 0.470537C0.171046 0.478351 0.166656 0.488949 0.166656 0.5V0.5ZM0.708323 0.0833333H0.291656C0.258504 0.0833333 0.22671 0.0965029 0.203268 0.119945C0.179826 0.143387 0.166656 0.175181 0.166656 0.208333V0.333333C0.166656 0.344384 0.171046 0.354982 0.17886 0.362796C0.186674 0.37061 0.197272 0.375 0.208323 0.375C0.219374 0.375 0.229972 0.37061 0.237786 0.362796C0.2456 0.354982 0.24999 0.344384 0.24999 0.333333V0.208333C0.24999 0.197283 0.25438 0.186684 0.262194 0.17887C0.270008 0.171056 0.280606 0.166667 0.291656 0.166667H0.708323C0.719374 0.166667 0.729972 0.171056 0.737786 0.17887C0.7456 0.186684 0.74999 0.197283 0.74999 0.208333V0.791667C0.74999 0.802717 0.7456 0.813315 0.737786 0.821129C0.729972 0.828943 0.719374 0.833333 0.708323 0.833333H0.291656C0.280606 0.833333 0.270008 0.828943 0.262194 0.821129C0.25438 0.813315 0.24999 0.802717 0.24999 0.791667V0.666667C0.24999 0.655616 0.2456 0.645018 0.237786 0.637204C0.229972 0.62939 0.219374 0.625 0.208323 0.625C0.197272 0.625 0.186674 0.62939 0.17886 0.637204C0.171046 0.645018 0.166656 0.655616 0.166656 0.666667V0.791667C0.166656 0.824819 0.179826 0.856613 0.203268 0.880055C0.22671 0.903497 0.258504 0.916667 0.291656 0.916667H0.708323C0.741475 0.916667 0.773269 0.903497 0.796711 0.880055C0.820154 0.856613 0.833323 0.824819 0.833323 0.791667V0.208333C0.833323 0.175181 0.820154 0.143387 0.796711 0.119945C0.773269 0.0965029 0.741475 0.0833333 0.708323 0.0833333Z" fill="#373737"/>
</svg>
