<svg width="1" height="1" viewBox="0 0 1 1" fill="none" xmlns="http://www.w3.org/2000/svg">
<path d="M0.791677 0.166664H0.208344C0.175191 0.166664 0.143397 0.179834 0.119955 0.203276C0.0965131 0.226718 0.0833435 0.258512 0.0833435 0.291664V0.708331C0.0833435 0.741483 0.0965131 0.773277 0.119955 0.796719C0.143397 0.820161 0.175191 0.833331 0.208344 0.833331H0.791677C0.824829 0.833331 0.856623 0.820161 0.880065 0.796719C0.903507 0.773277 0.916677 0.741483 0.916677 0.708331V0.291664C0.916677 0.258512 0.903507 0.226718 0.880065 0.203276C0.856623 0.179834 0.824829 0.166664 0.791677 0.166664V0.166664ZM0.208344 0.249997H0.791677C0.802728 0.249997 0.813326 0.254387 0.82114 0.262201C0.828954 0.270015 0.833344 0.280613 0.833344 0.291664L0.50001 0.494997L0.166677 0.291664C0.166677 0.280613 0.171067 0.270015 0.178881 0.262201C0.186695 0.254387 0.197293 0.249997 0.208344 0.249997V0.249997ZM0.833344 0.708331C0.833344 0.719381 0.828954 0.72998 0.82114 0.737794C0.813326 0.745608 0.802728 0.749997 0.791677 0.749997H0.208344C0.197293 0.749997 0.186695 0.745608 0.178881 0.737794C0.171067 0.72998 0.166677 0.719381 0.166677 0.708331V0.386664L0.478343 0.577081C0.484678 0.580738 0.491863 0.582663 0.499177 0.582663C0.506491 0.582663 0.513676 0.580738 0.52001 0.577081L0.833344 0.386664V0.708331Z" fill="#373737"/>
</svg>
