<svg width="50" height="50" viewBox="0 0 50 50" fill="none" xmlns="http://www.w3.org/2000/svg">
<path d="M39.5833 8.33334H10.4167C8.75905 8.33334 7.16934 8.99182 5.99724 10.1639C4.82514 11.336 4.16666 12.9257 4.16666 14.5833V35.4167C4.16666 37.0743 4.82514 38.664 5.99724 39.8361C7.16934 41.0082 8.75905 41.6667 10.4167 41.6667H39.5833C41.2409 41.6667 42.8306 41.0082 44.0027 39.8361C45.1748 38.664 45.8333 37.0743 45.8333 35.4167V14.5833C45.8333 12.9257 45.1748 11.336 44.0027 10.1639C42.8306 8.99182 41.2409 8.33334 39.5833 8.33334V8.33334ZM10.4167 12.5H39.5833C40.1359 12.5 40.6658 12.7195 41.0565 13.1102C41.4472 13.5009 41.6667 14.0308 41.6667 14.5833L25 24.75L8.33332 14.5833C8.33332 14.0308 8.55282 13.5009 8.94352 13.1102C9.33422 12.7195 9.86412 12.5 10.4167 12.5V12.5ZM41.6667 35.4167C41.6667 35.9692 41.4472 36.4991 41.0565 36.8898C40.6658 37.2805 40.1359 37.5 39.5833 37.5H10.4167C9.86412 37.5 9.33422 37.2805 8.94352 36.8898C8.55282 36.4991 8.33332 35.9692 8.33332 35.4167V19.3333L23.9167 28.8542C24.2334 29.037 24.5926 29.1333 24.9583 29.1333C25.324 29.1333 25.6833 29.037 26 28.8542L41.6667 19.3333V35.4167Z" fill="white"/>
</svg>
