<svg width="50" height="50" viewBox="0 0 50 50" fill="none" xmlns="http://www.w3.org/2000/svg">
<path d="M10.4167 16.6667H39.5833C40.1359 16.6667 40.6658 16.4472 41.0565 16.0565C41.4472 15.6658 41.6667 15.1359 41.6667 14.5833C41.6667 14.0308 41.4472 13.5009 41.0565 13.1102C40.6658 12.7195 40.1359 12.5 39.5833 12.5H10.4167C9.86414 12.5 9.33423 12.7195 8.94353 13.1102C8.55283 13.5009 8.33334 14.0308 8.33334 14.5833C8.33334 15.1359 8.55283 15.6658 8.94353 16.0565C9.33423 16.4472 9.86414 16.6667 10.4167 16.6667ZM43.75 22.9167H6.25001C5.69747 22.9167 5.16757 23.1362 4.77687 23.5269C4.38617 23.9176 4.16667 24.4475 4.16667 25C4.16667 25.5525 4.38617 26.0824 4.77687 26.4731C5.16757 26.8638 5.69747 27.0833 6.25001 27.0833H43.75C44.3025 27.0833 44.8324 26.8638 45.2231 26.4731C45.6138 26.0824 45.8333 25.5525 45.8333 25C45.8333 24.4475 45.6138 23.9176 45.2231 23.5269C44.8324 23.1362 44.3025 22.9167 43.75 22.9167ZM39.5833 33.3333H10.4167C9.86414 33.3333 9.33423 33.5528 8.94353 33.9435C8.55283 34.3342 8.33334 34.8641 8.33334 35.4167C8.33334 35.9692 8.55283 36.4991 8.94353 36.8898C9.33423 37.2805 9.86414 37.5 10.4167 37.5H39.5833C40.1359 37.5 40.6658 37.2805 41.0565 36.8898C41.4472 36.4991 41.6667 35.9692 41.6667 35.4167C41.6667 34.8641 41.4472 34.3342 41.0565 33.9435C40.6658 33.5528 40.1359 33.3333 39.5833 33.3333Z" fill="white"/>
</svg>
