<svg width="1" height="1" viewBox="0 0 1 1" fill="none" xmlns="http://www.w3.org/2000/svg">
<path d="M0.208328 0.333333H0.791662C0.802712 0.333333 0.81331 0.328943 0.821124 0.321129C0.828938 0.313315 0.833328 0.302717 0.833328 0.291667C0.833328 0.280616 0.828938 0.270018 0.821124 0.262204C0.81331 0.25439 0.802712 0.25 0.791662 0.25H0.208328C0.197278 0.25 0.186679 0.25439 0.178865 0.262204C0.171051 0.270018 0.166662 0.280616 0.166662 0.291667C0.166662 0.302717 0.171051 0.313315 0.178865 0.321129C0.186679 0.328943 0.197278 0.333333 0.208328 0.333333ZM0.874995 0.458333H0.124995C0.113944 0.458333 0.103346 0.462723 0.0955321 0.470537C0.0877181 0.478351 0.0833282 0.488949 0.0833282 0.5C0.0833282 0.511051 0.0877181 0.521649 0.0955321 0.529463C0.103346 0.537277 0.113944 0.541667 0.124995 0.541667H0.874995C0.886046 0.541667 0.896644 0.537277 0.904458 0.529463C0.912272 0.521649 0.916662 0.511051 0.916662 0.5C0.916662 0.488949 0.912272 0.478351 0.904458 0.470537C0.896644 0.462723 0.886046 0.458333 0.874995 0.458333ZM0.791662 0.666667H0.208328C0.197278 0.666667 0.186679 0.671057 0.178865 0.678871C0.171051 0.686685 0.166662 0.697283 0.166662 0.708333C0.166662 0.719384 0.171051 0.729982 0.178865 0.737796C0.186679 0.74561 0.197278 0.75 0.208328 0.75H0.791662C0.802712 0.75 0.81331 0.74561 0.821124 0.737796C0.828938 0.729982 0.833328 0.719384 0.833328 0.708333C0.833328 0.697283 0.828938 0.686685 0.821124 0.678871C0.81331 0.671057 0.802712 0.666667 0.791662 0.666667Z" fill="#373737"/>
</svg>
