<svg width="50" height="50" viewBox="0 0 50 50" fill="none" xmlns="http://www.w3.org/2000/svg">
<path d="M45.0833 27.0833C44.7826 26.8348 44.4181 26.6756 44.0314 26.6241C43.6446 26.5725 43.2512 26.6306 42.8958 26.7917C40.6929 27.7998 38.2977 28.3186 35.875 28.3125C31.3934 28.3071 27.0958 26.5301 23.919 23.369C20.7423 20.2078 18.9442 15.919 18.9167 11.4375C18.9262 10.033 19.101 8.63447 19.4375 7.27083C19.5089 6.90737 19.4821 6.53144 19.3599 6.18178C19.2377 5.83211 19.0245 5.52136 18.7422 5.28152C18.4599 5.04169 18.1188 4.88145 17.754 4.81732C17.3891 4.75319 17.0138 4.78748 16.6667 4.91667C13.4007 6.38523 10.5616 8.65992 8.41616 11.527C6.27072 14.3942 4.88933 17.7596 4.40177 21.3073C3.9142 24.8549 4.33647 28.4682 5.6289 31.8078C6.92132 35.1474 9.04148 38.1037 11.7902 40.3989C14.5389 42.6941 17.826 44.2528 21.3426 44.9288C24.8592 45.6047 28.4899 45.3756 31.8936 44.263C35.2974 43.1504 38.3624 41.1908 40.8008 38.5682C43.2392 35.9457 44.971 32.7464 45.8333 29.2708C45.9384 28.8729 45.9232 28.4528 45.7897 28.0635C45.6562 27.6742 45.4104 27.3331 45.0833 27.0833V27.0833ZM25.2917 41.0208C21.7953 40.9962 18.3921 39.8914 15.5479 37.8578C12.7037 35.8242 10.5576 32.9611 9.40351 29.6607C8.24938 26.3602 8.14362 22.7837 9.10071 19.4208C10.0578 16.058 12.031 13.0731 14.75 10.875V11.4375C14.7555 17.0385 16.983 22.4085 20.9435 26.369C24.904 30.3295 30.274 32.557 35.875 32.5625C37.3456 32.5679 38.8125 32.4142 40.25 32.1042C38.8123 34.824 36.6593 37.0997 34.0232 38.6857C31.3872 40.2718 28.3681 41.108 25.2917 41.1042V41.0208Z" fill="#373737"/>
</svg>
