<svg width="1" height="1" viewBox="0 0 1 1" fill="none" xmlns="http://www.w3.org/2000/svg">
<path d="M0.901664 0.541666C0.89565 0.536695 0.88836 0.533512 0.880625 0.532481C0.87289 0.53145 0.865021 0.532611 0.857914 0.535833C0.813855 0.555995 0.765951 0.566372 0.717498 0.56625C0.627867 0.566141 0.541913 0.530601 0.478379 0.467379C0.414844 0.404157 0.378881 0.318379 0.378331 0.22875C0.378521 0.20066 0.382017 0.172689 0.388748 0.145417C0.390176 0.138147 0.38964 0.130629 0.387196 0.123636C0.384752 0.116642 0.380487 0.110427 0.374841 0.10563C0.369196 0.100834 0.362373 0.0976291 0.355077 0.0963465C0.347781 0.0950638 0.340274 0.0957497 0.333331 0.0983334C0.268011 0.127705 0.21123 0.173198 0.168321 0.230541C0.125412 0.287883 0.0977847 0.355193 0.0880334 0.426145C0.0782821 0.497097 0.0867274 0.569364 0.112576 0.636156C0.138424 0.702949 0.180828 0.762074 0.235802 0.807977C0.290777 0.853881 0.356518 0.885056 0.42685 0.898575C0.497182 0.912093 0.569796 0.907511 0.637871 0.885259C0.705945 0.863007 0.767246 0.823814 0.816014 0.771364C0.864782 0.718914 0.899417 0.654928 0.916664 0.585416C0.918765 0.577458 0.918461 0.569055 0.915792 0.561269C0.913122 0.553483 0.908206 0.546662 0.901664 0.541666V0.541666ZM0.505831 0.820416C0.435904 0.819923 0.36784 0.797827 0.310956 0.757155C0.254072 0.716483 0.211151 0.659222 0.188068 0.593213C0.164985 0.527204 0.16287 0.455674 0.182012 0.388417C0.201154 0.321159 0.240617 0.261462 0.294998 0.2175V0.22875C0.295108 0.34077 0.339657 0.44817 0.418867 0.52738C0.498077 0.606591 0.605478 0.651139 0.717498 0.65125C0.746909 0.651357 0.776247 0.648284 0.804998 0.642083C0.776244 0.696479 0.733184 0.741993 0.680463 0.773714C0.627741 0.805435 0.56736 0.822159 0.505831 0.822083V0.820416Z" fill="#373737"/>
</svg>
