<svg width="50" height="50" viewBox="0 0 50 50" fill="none" xmlns="http://www.w3.org/2000/svg">
<path d="M22.7917 12.6667C23.5224 12.5547 24.2607 12.4989 25 12.5C31.625 12.5 37.8542 17.2708 41.4792 25C40.9248 26.1762 40.2986 27.3173 39.6042 28.4167C39.3837 28.7579 39.2678 29.1562 39.2708 29.5625C39.2755 30.0172 39.4287 30.4578 39.7072 30.8172C39.9857 31.1767 40.3741 31.4351 40.8132 31.5531C41.2523 31.6712 41.718 31.6423 42.1391 31.471C42.5603 31.2996 42.9139 30.9952 43.1458 30.6042C44.1165 29.079 44.9597 27.4764 45.6667 25.8125C45.7784 25.5525 45.8361 25.2725 45.8361 24.9896C45.8361 24.7066 45.7784 24.4266 45.6667 24.1667C41.4583 14.3958 33.5417 8.33333 25 8.33333C24.0222 8.32841 23.046 8.41208 22.0833 8.58333C21.8097 8.62984 21.548 8.72978 21.313 8.87745C21.0781 9.02512 20.8745 9.21762 20.7139 9.44396C20.5534 9.6703 20.4389 9.92606 20.3772 10.1966C20.3155 10.4672 20.3077 10.7472 20.3542 11.0208C20.4007 11.2944 20.5006 11.5562 20.6483 11.7911C20.796 12.0261 20.9885 12.2297 21.2148 12.3902C21.4411 12.5508 21.6969 12.6652 21.9675 12.727C22.238 12.7887 22.5181 12.7965 22.7917 12.75V12.6667ZM7.72917 4.77083C7.53492 4.57659 7.30431 4.4225 7.05052 4.31738C6.79672 4.21225 6.52471 4.15814 6.25 4.15814C5.97529 4.15814 5.70328 4.21225 5.44948 4.31738C5.19568 4.4225 4.96508 4.57659 4.77083 4.77083C4.37853 5.16313 4.15814 5.6952 4.15814 6.25C4.15814 6.80479 4.37853 7.33687 4.77083 7.72917L11.2292 14.1667C8.28244 17.0032 5.9372 20.4041 4.33333 24.1667C4.21862 24.4295 4.15941 24.7132 4.15941 25C4.15941 25.2868 4.21862 25.5705 4.33333 25.8333C8.54167 35.6042 16.4583 41.6667 25 41.6667C28.744 41.6408 32.3995 40.526 35.5208 38.4583L42.2708 45.2292C42.4645 45.4244 42.6949 45.5794 42.9488 45.6852C43.2027 45.791 43.475 45.8454 43.75 45.8454C44.025 45.8454 44.2973 45.791 44.5512 45.6852C44.8051 45.5794 45.0355 45.4244 45.2292 45.2292C45.4244 45.0355 45.5794 44.8051 45.6852 44.5512C45.791 44.2973 45.8454 44.025 45.8454 43.75C45.8454 43.475 45.791 43.2027 45.6852 42.9488C45.5794 42.6949 45.4244 42.4645 45.2292 42.2708L7.72917 4.77083ZM20.9792 23.9167L26.0833 29.0208C25.7312 29.1218 25.3663 29.1709 25 29.1667C23.8949 29.1667 22.8351 28.7277 22.0537 27.9463C21.2723 27.1649 20.8333 26.1051 20.8333 25C20.8291 24.6337 20.8782 24.2688 20.9792 23.9167ZM25 37.5C18.375 37.5 12.1458 32.7292 8.54167 25C9.88769 22.0286 11.7981 19.347 14.1667 17.1042L17.8542 20.8333C16.988 22.4142 16.6578 24.2332 16.913 26.0176C17.1683 27.802 17.9952 29.4556 19.2698 30.7302C20.5445 32.0048 22.198 32.8317 23.9824 33.087C25.7668 33.3422 27.5858 33.012 29.1667 32.1458L32.4792 35.4167C30.2106 36.7518 27.6321 37.4701 25 37.5Z" fill="#373737"/>
</svg>
