<svg width="1" height="1" viewBox="0 0 1 1" fill="none" xmlns="http://www.w3.org/2000/svg">
<path d="M0.455831 0.253331C0.470446 0.251091 0.485212 0.249976 0.499997 0.249998C0.632497 0.249998 0.757081 0.345414 0.829581 0.499997C0.818493 0.523522 0.805969 0.546343 0.792081 0.568331C0.787671 0.575156 0.785354 0.583122 0.785414 0.591247C0.785507 0.600341 0.788572 0.609154 0.794142 0.616342C0.799711 0.623531 0.80748 0.6287 0.816262 0.63106C0.825044 0.633421 0.834357 0.632844 0.84278 0.629417C0.851203 0.62599 0.858274 0.619902 0.862914 0.612081C0.882328 0.581578 0.89919 0.549525 0.913331 0.516247C0.915566 0.511048 0.916719 0.505448 0.916719 0.499789C0.916719 0.49413 0.915566 0.48853 0.913331 0.483331C0.829164 0.287914 0.670831 0.166664 0.499997 0.166664C0.480442 0.166566 0.460918 0.168239 0.441664 0.171664C0.436192 0.172594 0.430957 0.174593 0.426258 0.177547C0.421559 0.1805 0.417487 0.18435 0.414276 0.188877C0.411065 0.193404 0.408776 0.198519 0.407542 0.20393C0.406307 0.209341 0.406151 0.214942 0.407081 0.220414C0.408011 0.225886 0.41001 0.231121 0.412963 0.23582C0.415917 0.240519 0.419767 0.244591 0.424293 0.247802C0.42882 0.251014 0.433935 0.253302 0.439346 0.254537C0.444758 0.255771 0.450359 0.255928 0.455831 0.254998V0.253331ZM0.154581 0.0954142C0.150696 0.0915293 0.146084 0.0884476 0.141008 0.0863451C0.135932 0.0842425 0.130492 0.0831604 0.124998 0.0831604C0.119503 0.0831604 0.114063 0.0842425 0.108987 0.0863451C0.103911 0.0884476 0.0992992 0.0915293 0.0954142 0.0954142C0.0875682 0.10326 0.0831604 0.113902 0.0831604 0.124998C0.0831604 0.136093 0.0875682 0.146735 0.0954142 0.154581L0.224581 0.283331C0.165646 0.340061 0.118742 0.40808 0.0866642 0.483331C0.0843699 0.488588 0.0831857 0.494262 0.0831857 0.499997C0.0831857 0.505733 0.0843699 0.511407 0.0866642 0.516664C0.170831 0.712081 0.329164 0.833331 0.499997 0.833331C0.574877 0.832813 0.647988 0.810518 0.710414 0.769164L0.845414 0.904581C0.849288 0.908486 0.853896 0.911586 0.858973 0.913701C0.864051 0.915817 0.869497 0.916906 0.874997 0.916906C0.880498 0.916906 0.885944 0.915817 0.891021 0.913701C0.896099 0.911586 0.900707 0.908486 0.904581 0.904581C0.908486 0.900707 0.911586 0.896099 0.913701 0.891021C0.915817 0.885944 0.916906 0.880498 0.916906 0.874997C0.916906 0.869497 0.915817 0.864051 0.913701 0.858973C0.911586 0.853896 0.908486 0.849288 0.904581 0.845414L0.154581 0.0954142ZM0.419581 0.478331L0.521664 0.580414C0.514622 0.582434 0.507323 0.583416 0.499997 0.583331C0.477896 0.583331 0.4567 0.574551 0.441072 0.558923C0.425444 0.543295 0.416664 0.522099 0.416664 0.499997C0.416579 0.492672 0.417561 0.485373 0.419581 0.478331ZM0.499997 0.749997C0.367497 0.749997 0.242914 0.654581 0.170831 0.499997C0.197751 0.44057 0.235959 0.386938 0.283331 0.342081L0.357081 0.416664C0.339758 0.448281 0.333153 0.484662 0.338258 0.52035C0.343363 0.556038 0.359902 0.589108 0.385394 0.6146C0.410886 0.640093 0.443957 0.656632 0.479645 0.661737C0.515333 0.666842 0.551714 0.660237 0.583331 0.642914L0.649581 0.708331C0.60421 0.735034 0.55264 0.749399 0.499997 0.749997Z" fill="#373737"/>
</svg>
