<svg width="1" height="1" viewBox="0 0 1 1" fill="none" xmlns="http://www.w3.org/2000/svg">
<path d="M0.624979 0.583336H0.37498C0.363929 0.583336 0.353331 0.587726 0.345517 0.59554C0.337703 0.603354 0.333313 0.613952 0.333313 0.625003C0.333313 0.636053 0.337703 0.646651 0.345517 0.654465C0.353331 0.662279 0.363929 0.666669 0.37498 0.666669H0.624979C0.63603 0.666669 0.646628 0.662279 0.654442 0.654465C0.662256 0.646651 0.666646 0.636053 0.666646 0.625003C0.666646 0.613952 0.662256 0.603354 0.654442 0.59554C0.646628 0.587726 0.63603 0.583336 0.624979 0.583336ZM0.378313 0.508753L0.440813 0.446253C0.444718 0.442379 0.447818 0.437771 0.449933 0.432693C0.452049 0.427616 0.453138 0.42217 0.453138 0.416669C0.453138 0.411169 0.452049 0.405723 0.449933 0.400645C0.447818 0.395568 0.444718 0.390959 0.440813 0.387086L0.378313 0.324586C0.370467 0.31674 0.359826 0.312332 0.34873 0.312332C0.337634 0.312332 0.326992 0.31674 0.319146 0.324586C0.3113 0.332432 0.306893 0.343073 0.306893 0.354169C0.306893 0.365265 0.3113 0.375907 0.319146 0.383753L0.35248 0.416669L0.319146 0.449586C0.315241 0.453459 0.312141 0.458068 0.310026 0.463145C0.307911 0.468223 0.306821 0.473669 0.306821 0.479169C0.306821 0.48467 0.307911 0.490116 0.310026 0.495193C0.312141 0.500271 0.315241 0.504879 0.319146 0.508753C0.32304 0.512614 0.327657 0.515669 0.332734 0.517743C0.33781 0.519817 0.343246 0.520868 0.34873 0.520836C0.354213 0.520868 0.359649 0.519817 0.364726 0.517743C0.369802 0.515669 0.37442 0.512614 0.378313 0.508753V0.508753ZM0.49998 0.0833359C0.417571 0.0833359 0.337013 0.107773 0.268492 0.153557C0.199972 0.199341 0.146567 0.264415 0.11503 0.340551C0.0834935 0.416687 0.0752421 0.500465 0.0913193 0.58129C0.107396 0.662116 0.14708 0.736359 0.205352 0.79463C0.263624 0.852902 0.337867 0.892586 0.418692 0.908663C0.499517 0.92474 0.583295 0.916489 0.659431 0.884952C0.735567 0.853416 0.800641 0.800011 0.846425 0.73149C0.892209 0.66297 0.916646 0.582411 0.916646 0.500003C0.916646 0.445285 0.905869 0.391103 0.884929 0.340551C0.86399 0.289999 0.833298 0.244066 0.794607 0.205375C0.755916 0.166684 0.709983 0.135992 0.659431 0.115053C0.608879 0.0941133 0.554697 0.0833359 0.49998 0.0833359V0.0833359ZM0.49998 0.833336C0.434053 0.833336 0.369606 0.813786 0.31479 0.777159C0.259973 0.740532 0.217249 0.688472 0.19202 0.627564C0.166791 0.566655 0.16019 0.499633 0.173051 0.434972C0.185913 0.370312 0.21766 0.310918 0.264277 0.2643C0.310895 0.217683 0.370289 0.185936 0.43495 0.173074C0.49961 0.160212 0.566632 0.166814 0.627541 0.192043C0.688449 0.217272 0.740509 0.259996 0.777136 0.314812C0.813763 0.369629 0.833313 0.434075 0.833313 0.500003C0.833313 0.588408 0.798194 0.673193 0.735682 0.735705C0.67317 0.798217 0.588385 0.833336 0.49998 0.833336V0.833336ZM0.690813 0.324586C0.686939 0.320681 0.682331 0.317581 0.677253 0.315465C0.672176 0.31335 0.66673 0.312261 0.661229 0.312261C0.655729 0.312261 0.650283 0.31335 0.645205 0.315465C0.640128 0.317581 0.63552 0.320681 0.631646 0.324586L0.569146 0.387086C0.565241 0.390959 0.562141 0.395568 0.560026 0.400645C0.55791 0.405723 0.556821 0.411169 0.556821 0.416669C0.556821 0.42217 0.55791 0.427616 0.560026 0.432693C0.562141 0.437771 0.565241 0.442379 0.569146 0.446253L0.631646 0.508753C0.635539 0.512614 0.640157 0.515669 0.645233 0.517743C0.65031 0.519817 0.655746 0.520868 0.661229 0.520836C0.666713 0.520868 0.672149 0.519817 0.677226 0.517743C0.682302 0.515669 0.686919 0.512614 0.690813 0.508753C0.694718 0.504879 0.697818 0.500271 0.699933 0.495193C0.702049 0.490116 0.703138 0.48467 0.703138 0.479169C0.703138 0.473669 0.702049 0.468223 0.699933 0.463145C0.697818 0.458068 0.694718 0.453459 0.690813 0.449586L0.657896 0.416669L0.690813 0.383753C0.694718 0.379879 0.697818 0.375271 0.699933 0.370193C0.702049 0.365116 0.703138 0.35967 0.703138 0.354169C0.703138 0.348669 0.702049 0.343223 0.699933 0.338145C0.697818 0.333068 0.694718 0.328459 0.690813 0.324586Z" fill="#373737"/>
</svg>
