<svg width="50" height="50" viewBox="0 0 50 50" fill="none" xmlns="http://www.w3.org/2000/svg">
<path d="M31.25 29.1667H18.75C18.1975 29.1667 17.6676 29.3862 17.2769 29.7769C16.8862 30.1676 16.6667 30.6975 16.6667 31.25C16.6667 31.8025 16.8862 32.3324 17.2769 32.7231C17.6676 33.1138 18.1975 33.3333 18.75 33.3333H31.25C31.8026 33.3333 32.3325 33.1138 32.7232 32.7231C33.1139 32.3324 33.3334 31.8025 33.3334 31.25C33.3334 30.6975 33.1139 30.1676 32.7232 29.7769C32.3325 29.3862 31.8026 29.1667 31.25 29.1667ZM18.9167 25.4375L22.0417 22.3125C22.237 22.1188 22.392 21.8884 22.4977 21.6345C22.6035 21.3807 22.6579 21.1084 22.6579 20.8333C22.6579 20.5583 22.6035 20.286 22.4977 20.0321C22.392 19.7783 22.237 19.5478 22.0417 19.3542L18.9167 16.2292C18.5244 15.8369 17.9923 15.6165 17.4375 15.6165C16.8827 15.6165 16.3507 15.8369 15.9584 16.2292C15.5661 16.6215 15.3457 17.1535 15.3457 17.7083C15.3457 18.2631 15.5661 18.7952 15.9584 19.1875L17.625 20.8333L15.9584 22.4792C15.7631 22.6728 15.6081 22.9033 15.5023 23.1571C15.3966 23.411 15.3421 23.6833 15.3421 23.9583C15.3421 24.2334 15.3966 24.5057 15.5023 24.7595C15.6081 25.0134 15.7631 25.2438 15.9584 25.4375C16.153 25.6306 16.3839 25.7833 16.6377 25.887C16.8916 25.9907 17.1633 26.0432 17.4375 26.0417C17.7117 26.0432 17.9835 25.9907 18.2373 25.887C18.4912 25.7833 18.722 25.6306 18.9167 25.4375V25.4375ZM25 4.16666C20.8796 4.16666 16.8517 5.38852 13.4257 7.67771C9.99963 9.96691 7.32937 13.2206 5.75254 17.0274C4.17571 20.8342 3.76314 25.0231 4.567 29.0644C5.37086 33.1056 7.35504 36.8178 10.2686 39.7314C13.1822 42.645 16.8944 44.6292 20.9357 45.433C24.9769 46.2369 29.1658 45.8243 32.9726 44.2475C36.7794 42.6707 40.0331 40.0004 42.3223 36.5744C44.6115 33.1484 45.8334 29.1204 45.8334 25C45.8334 22.2641 45.2945 19.555 44.2475 17.0274C43.2006 14.4998 41.666 12.2032 39.7314 10.2686C37.7969 8.33405 35.5002 6.79948 32.9726 5.75251C30.445 4.70553 27.7359 4.16666 25 4.16666V4.16666ZM25 41.6667C21.7037 41.6667 18.4813 40.6892 15.7405 38.8578C12.9997 37.0265 10.8635 34.4235 9.60204 31.3781C8.34058 28.3326 8.01052 24.9815 8.65361 21.7485C9.2967 18.5155 10.884 15.5458 13.2149 13.2149C15.5458 10.884 18.5155 9.29666 21.7485 8.65358C24.9815 8.01049 28.3327 8.34055 31.3781 9.60201C34.4235 10.8635 37.0265 12.9997 38.8579 15.7405C40.6892 18.4813 41.6667 21.7036 41.6667 25C41.6667 29.4203 39.9108 33.6595 36.7851 36.7851C33.6595 39.9107 29.4203 41.6667 25 41.6667V41.6667ZM34.5417 16.2292C34.348 16.0339 34.1176 15.8789 33.8637 15.7731C33.6099 15.6674 33.3376 15.6129 33.0625 15.6129C32.7875 15.6129 32.5152 15.6674 32.2613 15.7731C32.0075 15.8789 31.777 16.0339 31.5834 16.2292L28.4584 19.3542C28.2631 19.5478 28.1081 19.7783 28.0023 20.0321C27.8966 20.286 27.8421 20.5583 27.8421 20.8333C27.8421 21.1084 27.8966 21.3807 28.0023 21.6345C28.1081 21.8884 28.2631 22.1188 28.4584 22.3125L31.5834 25.4375C31.778 25.6306 32.0089 25.7833 32.2627 25.887C32.5166 25.9907 32.7884 26.0432 33.0625 26.0417C33.3367 26.0432 33.6085 25.9907 33.8623 25.887C34.1162 25.7833 34.347 25.6306 34.5417 25.4375C34.737 25.2438 34.892 25.0134 34.9977 24.7595C35.1035 24.5057 35.1579 24.2334 35.1579 23.9583C35.1579 23.6833 35.1035 23.411 34.9977 23.1571C34.892 22.9033 34.737 22.6728 34.5417 22.4792L32.8959 20.8333L34.5417 19.1875C34.737 18.9938 34.892 18.7634 34.9977 18.5095C35.1035 18.2557 35.1579 17.9834 35.1579 17.7083C35.1579 17.4333 35.1035 17.161 34.9977 16.9071C34.892 16.6533 34.737 16.4228 34.5417 16.2292Z" fill="#373737"/>
</svg>
