<svg width="50" height="50" viewBox="0 0 50 50" fill="none" xmlns="http://www.w3.org/2000/svg">
<path d="M43.8958 35.0625L39.5833 30.6458C38.6557 29.7641 37.4856 29.1798 36.2234 28.9682C34.9611 28.7566 33.6645 28.9273 32.5 29.4583L30.625 27.5833C32.8345 24.6311 33.8435 20.9514 33.449 17.2851C33.0545 13.6187 31.2858 10.238 28.4988 7.82333C25.7118 5.4087 22.1136 4.13949 18.4285 4.27122C14.7433 4.40294 11.2449 5.92581 8.63743 8.53327C6.02997 11.1407 4.5071 14.6392 4.37537 18.3243C4.24365 22.0094 5.51286 25.6077 7.92749 28.3946C10.3421 31.1816 13.7229 32.9504 17.3892 33.3449C21.0556 33.7394 24.7352 32.7303 27.6875 30.5208L29.5417 32.375C28.9481 33.5409 28.7354 34.8637 28.9335 36.1569C29.1316 37.4501 29.7305 38.6486 30.6458 39.5833L35.0625 44C36.2344 45.1704 37.8229 45.8278 39.4792 45.8278C41.1354 45.8278 42.7239 45.1704 43.8958 44C44.4911 43.4179 44.9641 42.7228 45.287 41.9554C45.61 41.188 45.7763 40.3638 45.7763 39.5312C45.7763 38.6987 45.61 37.8745 45.287 37.1071C44.9641 36.3397 44.4911 35.6446 43.8958 35.0625V35.0625ZM26.2292 26.2292C24.7713 27.6833 22.9152 28.6728 20.8953 29.0726C18.8754 29.4724 16.7823 29.2646 14.8804 28.4754C12.9785 27.6862 11.3532 26.3511 10.2098 24.6386C9.06637 22.9262 8.45611 20.9133 8.45611 18.8542C8.45611 16.7951 9.06637 14.7822 10.2098 13.0697C11.3532 11.3573 12.9785 10.0221 14.8804 9.23294C16.7823 8.44376 18.8754 8.23594 20.8953 8.63573C22.9152 9.03553 24.7713 10.025 26.2292 11.4792C27.1992 12.4468 27.9689 13.5963 28.494 14.8618C29.0191 16.1273 29.2894 17.484 29.2894 18.8542C29.2894 20.2243 29.0191 21.581 28.494 22.8465C27.9689 24.1121 27.1992 25.2615 26.2292 26.2292V26.2292ZM40.9583 40.9583C40.7647 41.1536 40.5342 41.3086 40.2804 41.4144C40.0265 41.5201 39.7542 41.5746 39.4792 41.5746C39.2041 41.5746 38.9318 41.5201 38.678 41.4144C38.4241 41.3086 38.1937 41.1536 38 40.9583L33.5833 36.5417C33.3881 36.348 33.2331 36.1176 33.1273 35.8637C33.0215 35.6098 32.9671 35.3375 32.9671 35.0625C32.9671 34.7875 33.0215 34.5152 33.1273 34.2613C33.2331 34.0074 33.3881 33.777 33.5833 33.5833C33.777 33.3881 34.0074 33.2331 34.2613 33.1273C34.5152 33.0215 34.7875 32.9671 35.0625 32.9671C35.3375 32.9671 35.6098 33.0215 35.8637 33.1273C36.1176 33.2331 36.348 33.3881 36.5417 33.5833L40.9583 38C41.1536 38.1937 41.3086 38.4241 41.4143 38.678C41.5201 38.9318 41.5746 39.2041 41.5746 39.4792C41.5746 39.7542 41.5201 40.0265 41.4143 40.2804C41.3086 40.5342 41.1536 40.7647 40.9583 40.9583V40.9583Z" fill="#373737"/>
</svg>
