<svg width="1" height="1" viewBox="0 0 1 1" fill="none" xmlns="http://www.w3.org/2000/svg">
<path d="M0.877906 0.701247L0.791656 0.612914C0.773104 0.595278 0.749702 0.583594 0.724457 0.579362C0.699212 0.575129 0.673279 0.578543 0.64999 0.589164L0.61249 0.551664C0.656679 0.492619 0.676861 0.419026 0.668971 0.345699C0.661081 0.272372 0.625705 0.204757 0.569966 0.156464C0.514226 0.108172 0.442262 0.0827874 0.368559 0.0854219C0.294856 0.0880564 0.224887 0.118514 0.172738 0.170663C0.120589 0.222812 0.0901316 0.292781 0.0874971 0.366483C0.0848626 0.440186 0.110247 0.512151 0.158539 0.56789C0.206832 0.62363 0.274448 0.659005 0.347774 0.666895C0.421101 0.674785 0.494694 0.654604 0.55374 0.610414L0.590823 0.647497C0.578952 0.670815 0.574697 0.697271 0.578659 0.723135C0.582621 0.748999 0.594599 0.772968 0.612906 0.791664L0.70124 0.879997C0.724677 0.903405 0.756448 0.916554 0.789573 0.916554C0.822698 0.916554 0.854469 0.903405 0.877906 0.879997C0.889812 0.868356 0.899272 0.854453 0.90573 0.839105C0.912189 0.823757 0.915516 0.807274 0.915516 0.790622C0.915516 0.773971 0.912189 0.757487 0.90573 0.742139C0.899272 0.726791 0.889812 0.712889 0.877906 0.701247V0.701247ZM0.524573 0.524581C0.495416 0.553664 0.458294 0.573453 0.417895 0.581449C0.377497 0.589445 0.335635 0.585289 0.297598 0.569505C0.259561 0.553721 0.227054 0.527019 0.204186 0.49277C0.181317 0.458521 0.169112 0.418263 0.169112 0.377081C0.169112 0.335899 0.181317 0.295641 0.204186 0.261392C0.227054 0.227143 0.259561 0.20044 0.297598 0.184656C0.335635 0.168873 0.377497 0.164716 0.417895 0.172712C0.458294 0.180708 0.495416 0.200498 0.524573 0.229581C0.543974 0.248933 0.559367 0.271923 0.56987 0.297233C0.580372 0.322544 0.585779 0.349678 0.585779 0.377081C0.585779 0.404484 0.580372 0.431618 0.56987 0.456928C0.559367 0.482238 0.543974 0.505228 0.524573 0.524581V0.524581ZM0.819156 0.819164C0.815283 0.823069 0.810674 0.826169 0.805597 0.828284C0.800519 0.8304 0.795074 0.831489 0.789573 0.831489C0.784073 0.831489 0.778626 0.8304 0.773549 0.828284C0.768471 0.826169 0.763863 0.823069 0.75999 0.819164L0.671656 0.730831C0.667751 0.726957 0.664651 0.722349 0.662536 0.717271C0.66042 0.712194 0.659331 0.706748 0.659331 0.701247C0.659331 0.695747 0.66042 0.690301 0.662536 0.685223C0.664651 0.680146 0.667751 0.675537 0.671656 0.671664C0.67553 0.667759 0.680138 0.664659 0.685216 0.662543C0.690293 0.660428 0.695739 0.659339 0.70124 0.659339C0.70674 0.659339 0.712186 0.660428 0.717264 0.662543C0.722341 0.664659 0.72695 0.667759 0.730823 0.671664L0.819156 0.759997C0.823062 0.763871 0.826161 0.768479 0.828277 0.773556C0.830392 0.778634 0.831481 0.78408 0.831481 0.78958C0.831481 0.795081 0.830392 0.800527 0.828277 0.805604C0.826161 0.810682 0.823062 0.81529 0.819156 0.819164V0.819164Z" fill="#373737"/>
</svg>
