<svg width="50" height="50" viewBox="0 0 50 50" fill="none" xmlns="http://www.w3.org/2000/svg">
<path d="M44.4167 19.8958L40.4792 18.5833L42.3333 14.875C42.5213 14.4868 42.5842 14.0499 42.5133 13.6245C42.4424 13.1991 42.2412 12.8062 41.9375 12.5L37.5 8.0625C37.1922 7.75434 36.7955 7.55043 36.3657 7.47942C35.936 7.40842 35.4948 7.4739 35.1042 7.66666L31.3958 9.52083L30.0833 5.58333C29.9447 5.1729 29.6816 4.81588 29.3306 4.56197C28.9796 4.30806 28.5582 4.16988 28.125 4.16666H21.875C21.4382 4.16554 21.0122 4.3017 20.657 4.55592C20.3019 4.81013 20.0356 5.16954 19.8958 5.58333L18.5833 9.52083L14.875 7.66666C14.4868 7.4787 14.0499 7.41584 13.6245 7.48674C13.1991 7.55764 12.8062 7.75881 12.5 8.0625L8.0625 12.5C7.75434 12.8078 7.55043 13.2045 7.47942 13.6343C7.40842 14.064 7.4739 14.5052 7.66666 14.8958L9.52083 18.6042L5.58333 19.9167C5.1729 20.0553 4.81588 20.3184 4.56197 20.6694C4.30806 21.0204 4.16988 21.4418 4.16666 21.875V28.125C4.16554 28.5618 4.3017 28.9878 4.55592 29.343C4.81013 29.6981 5.16954 29.9644 5.58333 30.1042L9.52083 31.4167L7.66666 35.125C7.4787 35.5132 7.41584 35.9501 7.48674 36.3755C7.55764 36.8009 7.75881 37.1938 8.0625 37.5L12.5 41.9375C12.8078 42.2456 13.2045 42.4496 13.6343 42.5206C14.064 42.5916 14.5052 42.5261 14.8958 42.3333L18.6042 40.4792L19.9167 44.4167C20.0564 44.8305 20.3227 45.1899 20.6779 45.4441C21.033 45.6983 21.4591 45.8345 21.8958 45.8333H28.1458C28.5826 45.8345 29.0087 45.6983 29.3638 45.4441C29.719 45.1899 29.9852 44.8305 30.125 44.4167L31.4375 40.4792L35.1458 42.3333C35.5315 42.5165 35.9642 42.5768 36.3852 42.506C36.8063 42.4352 37.1954 42.2368 37.5 41.9375L41.9375 37.5C42.2456 37.1922 42.4496 36.7955 42.5206 36.3657C42.5916 35.936 42.5261 35.4948 42.3333 35.1042L40.4792 31.3958L44.4167 30.0833C44.8271 29.9447 45.1841 29.6816 45.438 29.3306C45.6919 28.9796 45.8301 28.5582 45.8333 28.125V21.875C45.8345 21.4382 45.6983 21.0122 45.4441 20.657C45.1899 20.3019 44.8305 20.0356 44.4167 19.8958ZM41.6667 26.625L39.1667 27.4583C38.5918 27.6448 38.0643 27.9541 37.6209 28.3648C37.1775 28.7755 36.8288 29.2777 36.5989 29.8366C36.369 30.3955 36.2634 30.9978 36.2895 31.6016C36.3156 32.2054 36.4727 32.7963 36.75 33.3333L37.9375 35.7083L35.6458 38L33.3333 36.75C32.7991 36.4838 32.2139 36.3355 31.6173 36.3152C31.0208 36.2949 30.4268 36.4029 29.8757 36.6321C29.3245 36.8612 28.829 37.2061 28.4227 37.6434C28.0165 38.0807 27.7089 38.6002 27.5208 39.1667L26.6875 41.6667H23.375L22.5417 39.1667C22.3552 38.5918 22.0459 38.0643 21.6352 37.6209C21.2245 37.1775 20.7223 36.8288 20.1634 36.5989C19.6044 36.369 19.0022 36.2634 18.3984 36.2895C17.7946 36.3156 17.2037 36.4727 16.6667 36.75L14.2917 37.9375L12 35.6458L13.25 33.3333C13.5273 32.7963 13.6844 32.2054 13.7105 31.6016C13.7366 30.9978 13.631 30.3955 13.4011 29.8366C13.1712 29.2777 12.8225 28.7755 12.379 28.3648C11.9356 27.9541 11.4082 27.6448 10.8333 27.4583L8.33333 26.625V23.375L10.8333 22.5417C11.4082 22.3552 11.9356 22.0459 12.379 21.6352C12.8225 21.2245 13.1712 20.7223 13.4011 20.1634C13.631 19.6044 13.7366 19.0022 13.7105 18.3984C13.6844 17.7946 13.5273 17.2037 13.25 16.6667L12.0625 14.3542L14.3542 12.0625L16.6667 13.25C17.2037 13.5273 17.7946 13.6844 18.3984 13.7105C19.0022 13.7366 19.6044 13.631 20.1634 13.4011C20.7223 13.1712 21.2245 12.8225 21.6352 12.379C22.0459 11.9356 22.3552 11.4082 22.5417 10.8333L23.375 8.33333H26.625L27.4583 10.8333C27.6448 11.4082 27.9541 11.9356 28.3648 12.379C28.7755 12.8225 29.2777 13.1712 29.8366 13.4011C30.3955 13.631 30.9978 13.7366 31.6016 13.7105C32.2054 13.6844 32.7963 13.5273 33.3333 13.25L35.7083 12.0625L38 14.3542L36.75 16.6667C36.4838 17.2009 36.3355 17.7861 36.3152 18.3827C36.2949 18.9792 36.4029 19.5732 36.6321 20.1243C36.8612 20.6755 37.2061 21.171 37.6434 21.5772C38.0807 21.9835 38.6002 22.2911 39.1667 22.4792L41.6667 23.3125V26.625ZM25 16.6667C23.3518 16.6667 21.7407 17.1554 20.3702 18.0711C18.9998 18.9868 17.9317 20.2882 17.301 21.811C16.6703 23.3337 16.5052 25.0092 16.8268 26.6257C17.1483 28.2423 17.942 29.7271 19.1074 30.8926C20.2729 32.058 21.7577 32.8517 23.3742 33.1732C24.9908 33.4947 26.6663 33.3297 28.189 32.699C29.7117 32.0683 31.0132 31.0002 31.9289 29.6297C32.8446 28.2593 33.3333 26.6482 33.3333 25C33.3333 22.7899 32.4554 20.6702 30.8926 19.1074C29.3297 17.5446 27.2101 16.6667 25 16.6667V16.6667ZM25 29.1667C24.1759 29.1667 23.3703 28.9223 22.6851 28.4645C21.9999 28.0066 21.4659 27.3559 21.1505 26.5945C20.8351 25.8331 20.7526 24.9954 20.9134 24.1871C21.0742 23.3789 21.471 22.6364 22.0537 22.0537C22.6364 21.471 23.3789 21.0742 24.1871 20.9134C24.9954 20.7526 25.8331 20.8351 26.5945 21.1505C27.3559 21.4659 28.0066 21.9999 28.4645 22.6851C28.9223 23.3703 29.1667 24.1759 29.1667 25C29.1667 26.1051 28.7277 27.1649 27.9463 27.9463C27.1649 28.7277 26.1051 29.1667 25 29.1667Z" fill="white"/>
</svg>
