<svg width="1" height="1" viewBox="0 0 1 1" fill="none" xmlns="http://www.w3.org/2000/svg">
<path d="M0.888344 0.397917L0.809594 0.371667L0.846677 0.2975C0.850437 0.289737 0.851694 0.280999 0.850276 0.272491C0.848858 0.263983 0.844834 0.256124 0.838761 0.25L0.750011 0.16125C0.743854 0.155087 0.73592 0.151009 0.727325 0.149589C0.71873 0.148169 0.709906 0.149478 0.702094 0.153333L0.627927 0.190417L0.601677 0.111667C0.598905 0.103458 0.593643 0.0963178 0.586623 0.0912396C0.579603 0.0861613 0.571174 0.0833977 0.562511 0.0833334H0.43751C0.428775 0.0833108 0.420254 0.0860342 0.413151 0.0911185C0.406048 0.0962028 0.400722 0.103391 0.397927 0.111667L0.371677 0.190417L0.29751 0.153333C0.289747 0.149574 0.281009 0.148317 0.272501 0.149735C0.263993 0.151153 0.256135 0.155176 0.25001 0.16125L0.16126 0.25C0.155097 0.256157 0.151019 0.264091 0.149599 0.272686C0.148179 0.281281 0.149489 0.290105 0.153344 0.297917L0.190427 0.372084L0.111677 0.398334C0.103468 0.401106 0.0963281 0.406368 0.0912498 0.413388C0.0861716 0.420408 0.083408 0.428836 0.0833436 0.4375V0.5625C0.0833211 0.571235 0.0860444 0.579757 0.0911287 0.58686C0.096213 0.593963 0.103401 0.599288 0.111677 0.602084L0.190427 0.628334L0.153344 0.7025C0.149585 0.710264 0.148327 0.719002 0.149745 0.72751C0.151163 0.736018 0.155187 0.743876 0.16126 0.75L0.25001 0.83875C0.256167 0.844914 0.264101 0.848992 0.272696 0.850412C0.281291 0.851832 0.290115 0.850522 0.297927 0.846667L0.372094 0.809584L0.398344 0.888334C0.401139 0.89661 0.406465 0.903798 0.413568 0.908882C0.420671 0.913966 0.429192 0.91669 0.437927 0.916667H0.562927C0.571662 0.91669 0.580184 0.913966 0.587287 0.908882C0.59439 0.903798 0.599715 0.89661 0.602511 0.888334L0.628761 0.809584L0.702927 0.846667C0.710641 0.850332 0.719294 0.851537 0.727715 0.850121C0.736137 0.848705 0.74392 0.844736 0.750011 0.83875L0.838761 0.75C0.844924 0.743844 0.849002 0.73591 0.850422 0.727315C0.851842 0.71872 0.850533 0.709896 0.846677 0.702084L0.809594 0.627917L0.888344 0.601667C0.896553 0.598895 0.903693 0.593632 0.908771 0.586613C0.91385 0.579593 0.916613 0.571164 0.916677 0.5625V0.4375C0.9167 0.428765 0.913977 0.420244 0.908892 0.413141C0.903808 0.406038 0.89662 0.400712 0.888344 0.397917ZM0.833344 0.5325L0.783344 0.549167C0.771846 0.552896 0.761298 0.559083 0.75243 0.567296C0.743562 0.57551 0.736586 0.585554 0.731988 0.596733C0.72739 0.607911 0.725279 0.619957 0.7258 0.632033C0.726322 0.644109 0.729465 0.655927 0.735011 0.666667L0.758761 0.714167L0.712927 0.76L0.666677 0.735C0.655992 0.729677 0.644288 0.726711 0.632357 0.726304C0.620426 0.725898 0.608547 0.728059 0.597524 0.732642C0.586501 0.737225 0.576591 0.744123 0.568466 0.752869C0.56034 0.761614 0.554188 0.772004 0.550427 0.783334L0.533761 0.833334H0.467511L0.450844 0.783334C0.447114 0.771836 0.440928 0.761287 0.432715 0.752419C0.424501 0.743551 0.414457 0.736576 0.403278 0.731978C0.392099 0.72738 0.380054 0.725268 0.367978 0.72579C0.355902 0.726312 0.344084 0.729455 0.333344 0.735L0.285844 0.75875L0.24001 0.712917L0.26501 0.666667C0.270556 0.655927 0.273699 0.644109 0.274221 0.632033C0.274743 0.619957 0.272631 0.607911 0.268033 0.596733C0.263435 0.585554 0.256459 0.57551 0.247591 0.567296C0.238723 0.559083 0.228175 0.552896 0.216677 0.549167L0.166677 0.5325V0.4675L0.216677 0.450834C0.228175 0.447104 0.238723 0.440918 0.247591 0.432704C0.256459 0.424491 0.263435 0.414446 0.268033 0.403268C0.272631 0.392089 0.274743 0.380044 0.274221 0.367968C0.273699 0.355892 0.270556 0.344074 0.26501 0.333334L0.24126 0.287084L0.287094 0.24125L0.333344 0.265C0.344084 0.270546 0.355902 0.273688 0.367978 0.27421C0.380054 0.274732 0.392099 0.272621 0.403278 0.268023C0.414457 0.263424 0.424501 0.256449 0.432715 0.247581C0.440928 0.238713 0.447114 0.228164 0.450844 0.216667L0.467511 0.166667H0.532511L0.549177 0.216667C0.552907 0.228164 0.559093 0.238713 0.567306 0.247581C0.57552 0.256449 0.585564 0.263424 0.596743 0.268023C0.607922 0.272621 0.619967 0.274732 0.632043 0.27421C0.644119 0.273688 0.655937 0.270546 0.666677 0.265L0.714177 0.24125L0.760011 0.287084L0.735011 0.333334C0.729687 0.344019 0.726722 0.355723 0.726315 0.367654C0.725908 0.379585 0.728069 0.391464 0.732652 0.402487C0.737235 0.41351 0.744133 0.42342 0.752879 0.431545C0.761625 0.439671 0.772014 0.445822 0.783344 0.449584L0.833344 0.46625V0.5325ZM0.500011 0.333334C0.467047 0.333334 0.434824 0.343108 0.407415 0.361422C0.380007 0.379736 0.358645 0.405765 0.346031 0.43622C0.333416 0.466674 0.330115 0.500185 0.336546 0.532515C0.342977 0.564846 0.358851 0.594543 0.382159 0.617851C0.405468 0.64116 0.435165 0.657034 0.467495 0.663465C0.499826 0.669895 0.533337 0.666595 0.563791 0.65398C0.594246 0.641366 0.620275 0.620004 0.638589 0.592595C0.656902 0.565187 0.666677 0.532964 0.666677 0.5C0.666677 0.455798 0.649118 0.413405 0.617862 0.382149C0.586606 0.350893 0.544213 0.333334 0.500011 0.333334V0.333334ZM0.500011 0.583334C0.483529 0.583334 0.467417 0.578446 0.453713 0.569289C0.440009 0.560133 0.429328 0.547118 0.423021 0.531891C0.416713 0.516663 0.415063 0.499908 0.418278 0.483743C0.421494 0.467578 0.429431 0.452729 0.441085 0.441075C0.452739 0.42942 0.467588 0.421484 0.483753 0.418268C0.499918 0.415053 0.516674 0.416703 0.531901 0.42301C0.547128 0.429318 0.560143 0.439999 0.5693 0.453703C0.578456 0.467407 0.583344 0.483518 0.583344 0.5C0.583344 0.522102 0.574564 0.543298 0.558936 0.558926C0.543308 0.574554 0.522112 0.583334 0.500011 0.583334Z" fill="#373737"/>
</svg>
