<svg width="50" height="50" viewBox="0 0 50 50" fill="none" xmlns="http://www.w3.org/2000/svg">
<path d="M4.16667 4.16666V45.8333H45.8333V4.16666H4.16667ZM28.2708 37.1875C27.2934 37.2888 26.3056 37.1856 25.3702 36.8844C24.4348 36.5833 23.5723 36.0908 22.8376 35.4384C22.1028 34.7859 21.5118 33.9877 21.1022 33.0944C20.6926 32.2012 20.4733 31.2325 20.4583 30.25V21.75H17.8333V18.3958C19.264 17.8413 20.5044 16.8861 21.406 15.6445C22.3076 14.403 22.8321 12.9278 22.9167 11.3958C22.9167 11.3461 22.9364 11.2984 22.9716 11.2632C23.0068 11.2281 23.0544 11.2083 23.1042 11.2083H26.8958V17.8125H32.1042V21.75H26.9167V29.8542C26.8783 30.1946 26.9161 30.5393 27.0273 30.8633C27.1384 31.1874 27.3202 31.4827 27.5594 31.7279C27.7986 31.9731 28.0893 32.1621 28.4106 32.2812C28.7318 32.4003 29.0754 32.4466 29.4167 32.4167C30.1323 32.3844 30.837 32.2294 31.5 31.9583L32.75 35.6667C31.4804 36.6811 29.8957 37.2192 28.2708 37.1875V37.1875Z" fill="white"/>
</svg>
