<svg width="1" height="1" viewBox="0 0 1 1" fill="none" xmlns="http://www.w3.org/2000/svg">
<path d="M0.0833282 0.0833435V0.916677H0.916662V0.0833435H0.0833282ZM0.565412 0.74376C0.545863 0.745786 0.526107 0.743721 0.507399 0.737699C0.488692 0.731676 0.471442 0.721827 0.456746 0.708778C0.442051 0.695728 0.430231 0.679764 0.422039 0.661899C0.413847 0.644035 0.409462 0.624661 0.409162 0.60501V0.43501H0.356662V0.367927C0.385275 0.356836 0.410083 0.337731 0.428115 0.312901C0.446147 0.28807 0.456637 0.258567 0.458328 0.227927C0.458328 0.226932 0.458723 0.225978 0.459427 0.225275C0.46013 0.224572 0.461084 0.224177 0.462078 0.224177H0.537912V0.35626H0.642078V0.43501H0.538328V0.597094C0.537561 0.603902 0.538317 0.610796 0.54054 0.617277C0.542763 0.623758 0.546398 0.629664 0.551183 0.634568C0.555967 0.639472 0.561782 0.643252 0.568206 0.645634C0.57463 0.648017 0.581503 0.648942 0.588328 0.648344C0.60264 0.647698 0.616734 0.644598 0.629995 0.639177L0.654995 0.713344C0.629602 0.733633 0.597908 0.744394 0.565412 0.74376V0.74376Z" fill="white"/>
</svg>
