<svg width="50" height="50" viewBox="0 0 50 50" fill="none" xmlns="http://www.w3.org/2000/svg">
<path d="M47.9167 20.2292C48.0197 17.2472 47.3676 14.2875 46.0208 11.625C45.1071 10.5325 43.839 9.79523 42.4375 9.54166C36.6407 9.01567 30.8199 8.80009 25 8.89583C19.2013 8.79574 13.4015 9.00437 7.625 9.52083C6.48296 9.72857 5.42608 10.2643 4.58333 11.0625C2.70833 12.7917 2.5 15.75 2.29166 18.25C1.9894 22.7449 1.9894 27.2551 2.29166 31.75C2.35194 33.1571 2.56144 34.5538 2.91666 35.9167C3.16786 36.9689 3.67609 37.9424 4.39583 38.75C5.24431 39.5905 6.3258 40.1567 7.5 40.375C11.9915 40.9294 16.5171 41.1592 21.0417 41.0625C28.3333 41.1667 34.7292 41.0625 42.2917 40.4792C43.4947 40.2743 44.6066 39.7074 45.4792 38.8542C46.0624 38.2707 46.4981 37.5565 46.75 36.7708C47.4951 34.4846 47.861 32.0919 47.8333 29.6875C47.9167 28.5208 47.9167 21.4792 47.9167 20.2292ZM20.2917 30.9375V18.0417L32.625 24.5208C29.1667 26.4375 24.6042 28.6042 20.2917 30.9375Z" fill="white"/>
</svg>
