<svg width="1" height="1" viewBox="0 0 1 1" fill="none" xmlns="http://www.w3.org/2000/svg">
<path d="M0.958332 0.404583C0.960392 0.344943 0.94735 0.28575 0.920415 0.232499C0.90214 0.210649 0.876778 0.195904 0.848748 0.190833C0.732812 0.180313 0.616396 0.176001 0.499999 0.177916C0.384025 0.175914 0.268028 0.180087 0.152499 0.190416C0.129658 0.194571 0.10852 0.205284 0.0916652 0.221249C0.0541652 0.255833 0.0499986 0.314999 0.0458319 0.364999C0.0397866 0.454898 0.0397866 0.545101 0.0458319 0.635C0.0470373 0.663142 0.0512275 0.691076 0.0583319 0.718333C0.0633559 0.739377 0.0735204 0.758848 0.0879152 0.775C0.104885 0.79181 0.126515 0.803133 0.149999 0.8075C0.239828 0.818588 0.330341 0.823183 0.420832 0.82125C0.566665 0.823333 0.694582 0.82125 0.845832 0.809583C0.869892 0.805485 0.892131 0.794147 0.909582 0.777083C0.921247 0.765413 0.92996 0.751129 0.934998 0.735416C0.9499 0.689692 0.957218 0.641838 0.956665 0.59375C0.958332 0.570416 0.958332 0.429583 0.958332 0.404583ZM0.405832 0.61875V0.360833L0.652498 0.490416C0.583332 0.52875 0.492082 0.572083 0.405832 0.61875Z" fill="white"/>
</svg>
